%TF.GenerationSoftware,KiCad,Pcbnew,(6.0.2)*%
%TF.CreationDate,2022-10-23T13:47:45-05:00*%
%TF.ProjectId,REF1220,52454631-3232-4302-9e6b-696361645f70,rev?*%
%TF.SameCoordinates,Original*%
%TF.FileFunction,Legend,Top*%
%TF.FilePolarity,Positive*%
%FSLAX46Y46*%
G04 Gerber Fmt 4.6, Leading zero omitted, Abs format (unit mm)*
G04 Created by KiCad (PCBNEW (6.0.2)) date 2022-10-23 13:47:45*
%MOMM*%
%LPD*%
G01*
G04 APERTURE LIST*
%ADD10C,0.150000*%
%ADD11C,0.125000*%
%ADD12C,0.120000*%
G04 APERTURE END LIST*
D10*
X175995000Y-94087000D02*
X181935000Y-94087000D01*
X181935000Y-94087000D02*
X181935000Y-96624000D01*
X181935000Y-96624000D02*
X175995000Y-96624000D01*
X175995000Y-96624000D02*
X175995000Y-94087000D01*
X181935000Y-96624000D02*
X176001000Y-96624000D01*
X176001000Y-96624000D02*
X176001000Y-99185000D01*
X176001000Y-99185000D02*
X181935000Y-99185000D01*
X181935000Y-99185000D02*
X181935000Y-96624000D01*
X181936000Y-91565000D02*
X175995000Y-91565000D01*
X175995000Y-91565000D02*
X175995000Y-94087000D01*
X175995000Y-94087000D02*
X181936000Y-94087000D01*
X181936000Y-94087000D02*
X181936000Y-91565000D01*
X181936000Y-91563000D02*
X175998000Y-91563000D01*
X175998000Y-91563000D02*
X175998000Y-88905000D01*
X175998000Y-88905000D02*
X181936000Y-88905000D01*
X181936000Y-88905000D02*
X181936000Y-91563000D01*
X106984857Y-107386071D02*
X107092000Y-107421785D01*
X107270571Y-107421785D01*
X107342000Y-107386071D01*
X107377714Y-107350357D01*
X107413428Y-107278928D01*
X107413428Y-107207500D01*
X107377714Y-107136071D01*
X107342000Y-107100357D01*
X107270571Y-107064642D01*
X107127714Y-107028928D01*
X107056285Y-106993214D01*
X107020571Y-106957500D01*
X106984857Y-106886071D01*
X106984857Y-106814642D01*
X107020571Y-106743214D01*
X107056285Y-106707500D01*
X107127714Y-106671785D01*
X107306285Y-106671785D01*
X107413428Y-106707500D01*
X107699142Y-107386071D02*
X107806285Y-107421785D01*
X107984857Y-107421785D01*
X108056285Y-107386071D01*
X108092000Y-107350357D01*
X108127714Y-107278928D01*
X108127714Y-107207500D01*
X108092000Y-107136071D01*
X108056285Y-107100357D01*
X107984857Y-107064642D01*
X107842000Y-107028928D01*
X107770571Y-106993214D01*
X107734857Y-106957500D01*
X107699142Y-106886071D01*
X107699142Y-106814642D01*
X107734857Y-106743214D01*
X107770571Y-106707500D01*
X107842000Y-106671785D01*
X108020571Y-106671785D01*
X108127714Y-106707500D01*
X108342000Y-106671785D02*
X108770571Y-106671785D01*
X108556285Y-107421785D02*
X108556285Y-106671785D01*
X105556285Y-107950714D02*
X105592000Y-107915000D01*
X105663428Y-107879285D01*
X105842000Y-107879285D01*
X105913428Y-107915000D01*
X105949142Y-107950714D01*
X105984857Y-108022142D01*
X105984857Y-108093571D01*
X105949142Y-108200714D01*
X105520571Y-108629285D01*
X105984857Y-108629285D01*
X106342000Y-108629285D02*
X106484857Y-108629285D01*
X106556285Y-108593571D01*
X106592000Y-108557857D01*
X106663428Y-108450714D01*
X106699142Y-108307857D01*
X106699142Y-108022142D01*
X106663428Y-107950714D01*
X106627714Y-107915000D01*
X106556285Y-107879285D01*
X106413428Y-107879285D01*
X106342000Y-107915000D01*
X106306285Y-107950714D01*
X106270571Y-108022142D01*
X106270571Y-108200714D01*
X106306285Y-108272142D01*
X106342000Y-108307857D01*
X106413428Y-108343571D01*
X106556285Y-108343571D01*
X106627714Y-108307857D01*
X106663428Y-108272142D01*
X106699142Y-108200714D01*
X107377714Y-108629285D02*
X107020571Y-108629285D01*
X107020571Y-107879285D01*
X107627714Y-108236428D02*
X107877714Y-108236428D01*
X107984857Y-108629285D02*
X107627714Y-108629285D01*
X107627714Y-107879285D01*
X107984857Y-107879285D01*
X108449142Y-107879285D02*
X108520571Y-107879285D01*
X108592000Y-107915000D01*
X108627714Y-107950714D01*
X108663428Y-108022142D01*
X108699142Y-108165000D01*
X108699142Y-108343571D01*
X108663428Y-108486428D01*
X108627714Y-108557857D01*
X108592000Y-108593571D01*
X108520571Y-108629285D01*
X108449142Y-108629285D01*
X108377714Y-108593571D01*
X108342000Y-108557857D01*
X108306285Y-108486428D01*
X108270571Y-108343571D01*
X108270571Y-108165000D01*
X108306285Y-108022142D01*
X108342000Y-107950714D01*
X108377714Y-107915000D01*
X108449142Y-107879285D01*
X109413428Y-108629285D02*
X108984857Y-108629285D01*
X109199142Y-108629285D02*
X109199142Y-107879285D01*
X109127714Y-107986428D01*
X109056285Y-108057857D01*
X108984857Y-108093571D01*
X109877714Y-107879285D02*
X109949142Y-107879285D01*
X110020571Y-107915000D01*
X110056285Y-107950714D01*
X110092000Y-108022142D01*
X110127714Y-108165000D01*
X110127714Y-108343571D01*
X110092000Y-108486428D01*
X110056285Y-108557857D01*
X110020571Y-108593571D01*
X109949142Y-108629285D01*
X109877714Y-108629285D01*
X109806285Y-108593571D01*
X109770571Y-108557857D01*
X109734857Y-108486428D01*
X109699142Y-108343571D01*
X109699142Y-108165000D01*
X109734857Y-108022142D01*
X109770571Y-107950714D01*
X109806285Y-107915000D01*
X109877714Y-107879285D01*
X105574142Y-109158214D02*
X105609857Y-109122500D01*
X105681285Y-109086785D01*
X105859857Y-109086785D01*
X105931285Y-109122500D01*
X105967000Y-109158214D01*
X106002714Y-109229642D01*
X106002714Y-109301071D01*
X105967000Y-109408214D01*
X105538428Y-109836785D01*
X106002714Y-109836785D01*
X106431285Y-109408214D02*
X106359857Y-109372500D01*
X106324142Y-109336785D01*
X106288428Y-109265357D01*
X106288428Y-109229642D01*
X106324142Y-109158214D01*
X106359857Y-109122500D01*
X106431285Y-109086785D01*
X106574142Y-109086785D01*
X106645571Y-109122500D01*
X106681285Y-109158214D01*
X106717000Y-109229642D01*
X106717000Y-109265357D01*
X106681285Y-109336785D01*
X106645571Y-109372500D01*
X106574142Y-109408214D01*
X106431285Y-109408214D01*
X106359857Y-109443928D01*
X106324142Y-109479642D01*
X106288428Y-109551071D01*
X106288428Y-109693928D01*
X106324142Y-109765357D01*
X106359857Y-109801071D01*
X106431285Y-109836785D01*
X106574142Y-109836785D01*
X106645571Y-109801071D01*
X106681285Y-109765357D01*
X106717000Y-109693928D01*
X106717000Y-109551071D01*
X106681285Y-109479642D01*
X106645571Y-109443928D01*
X106574142Y-109408214D01*
X107395571Y-109836785D02*
X107038428Y-109836785D01*
X107038428Y-109086785D01*
X107895571Y-109443928D02*
X107645571Y-109443928D01*
X107645571Y-109836785D02*
X107645571Y-109086785D01*
X108002714Y-109086785D01*
X108431285Y-109086785D02*
X108502714Y-109086785D01*
X108574142Y-109122500D01*
X108609857Y-109158214D01*
X108645571Y-109229642D01*
X108681285Y-109372500D01*
X108681285Y-109551071D01*
X108645571Y-109693928D01*
X108609857Y-109765357D01*
X108574142Y-109801071D01*
X108502714Y-109836785D01*
X108431285Y-109836785D01*
X108359857Y-109801071D01*
X108324142Y-109765357D01*
X108288428Y-109693928D01*
X108252714Y-109551071D01*
X108252714Y-109372500D01*
X108288428Y-109229642D01*
X108324142Y-109158214D01*
X108359857Y-109122500D01*
X108431285Y-109086785D01*
X109324142Y-109336785D02*
X109324142Y-109836785D01*
X109145571Y-109051071D02*
X108967000Y-109586785D01*
X109431285Y-109586785D01*
X109859857Y-109086785D02*
X109931285Y-109086785D01*
X110002714Y-109122500D01*
X110038428Y-109158214D01*
X110074142Y-109229642D01*
X110109857Y-109372500D01*
X110109857Y-109551071D01*
X110074142Y-109693928D01*
X110038428Y-109765357D01*
X110002714Y-109801071D01*
X109931285Y-109836785D01*
X109859857Y-109836785D01*
X109788428Y-109801071D01*
X109752714Y-109765357D01*
X109717000Y-109693928D01*
X109681285Y-109551071D01*
X109681285Y-109372500D01*
X109717000Y-109229642D01*
X109752714Y-109158214D01*
X109788428Y-109122500D01*
X109859857Y-109086785D01*
X169353952Y-95837712D02*
X168782523Y-95837712D01*
X169068238Y-95837712D02*
X169068238Y-94837712D01*
X168973000Y-94980570D01*
X168877761Y-95075808D01*
X168782523Y-95123427D01*
X169973000Y-94837712D02*
X170068238Y-94837712D01*
X170163476Y-94885332D01*
X170211095Y-94932951D01*
X170258714Y-95028189D01*
X170306333Y-95218665D01*
X170306333Y-95456760D01*
X170258714Y-95647236D01*
X170211095Y-95742474D01*
X170163476Y-95790093D01*
X170068238Y-95837712D01*
X169973000Y-95837712D01*
X169877761Y-95790093D01*
X169830142Y-95742474D01*
X169782523Y-95647236D01*
X169734904Y-95456760D01*
X169734904Y-95218665D01*
X169782523Y-95028189D01*
X169830142Y-94932951D01*
X169877761Y-94885332D01*
X169973000Y-94837712D01*
X170734904Y-95837712D02*
X170734904Y-94837712D01*
X170830142Y-95456760D02*
X171115857Y-95837712D01*
X171115857Y-95171046D02*
X170734904Y-95551998D01*
X172496809Y-94837712D02*
X172687285Y-94837712D01*
X172782523Y-94885332D01*
X172877761Y-94980570D01*
X172925380Y-95171046D01*
X172925380Y-95504379D01*
X172877761Y-95694855D01*
X172782523Y-95790093D01*
X172687285Y-95837712D01*
X172496809Y-95837712D01*
X172401571Y-95790093D01*
X172306333Y-95694855D01*
X172258714Y-95504379D01*
X172258714Y-95171046D01*
X172306333Y-94980570D01*
X172401571Y-94885332D01*
X172496809Y-94837712D01*
X173353952Y-95837712D02*
X173353952Y-94837712D01*
X173782523Y-95837712D02*
X173782523Y-95313903D01*
X173734904Y-95218665D01*
X173639666Y-95171046D01*
X173496809Y-95171046D01*
X173401571Y-95218665D01*
X173353952Y-95266284D01*
X174258714Y-95837712D02*
X174258714Y-95171046D01*
X174258714Y-95266284D02*
X174306333Y-95218665D01*
X174401571Y-95171046D01*
X174544428Y-95171046D01*
X174639666Y-95218665D01*
X174687285Y-95313903D01*
X174687285Y-95837712D01*
X174687285Y-95313903D02*
X174734904Y-95218665D01*
X174830142Y-95171046D01*
X174973000Y-95171046D01*
X175068238Y-95218665D01*
X175115857Y-95313903D01*
X175115857Y-95837712D01*
X169353952Y-93248046D02*
X168782523Y-93248046D01*
X169068238Y-93248046D02*
X169068238Y-92248046D01*
X168973000Y-92390904D01*
X168877761Y-92486142D01*
X168782523Y-92533761D01*
X169973000Y-92248046D02*
X170068238Y-92248046D01*
X170163476Y-92295666D01*
X170211095Y-92343285D01*
X170258714Y-92438523D01*
X170306333Y-92628999D01*
X170306333Y-92867094D01*
X170258714Y-93057570D01*
X170211095Y-93152808D01*
X170163476Y-93200427D01*
X170068238Y-93248046D01*
X169973000Y-93248046D01*
X169877761Y-93200427D01*
X169830142Y-93152808D01*
X169782523Y-93057570D01*
X169734904Y-92867094D01*
X169734904Y-92628999D01*
X169782523Y-92438523D01*
X169830142Y-92343285D01*
X169877761Y-92295666D01*
X169973000Y-92248046D01*
X170734904Y-93248046D02*
X170734904Y-92248046D01*
X170830142Y-92867094D02*
X171115857Y-93248046D01*
X171115857Y-92581380D02*
X170734904Y-92962332D01*
X172496809Y-92248046D02*
X172687285Y-92248046D01*
X172782523Y-92295666D01*
X172877761Y-92390904D01*
X172925380Y-92581380D01*
X172925380Y-92914713D01*
X172877761Y-93105189D01*
X172782523Y-93200427D01*
X172687285Y-93248046D01*
X172496809Y-93248046D01*
X172401571Y-93200427D01*
X172306333Y-93105189D01*
X172258714Y-92914713D01*
X172258714Y-92581380D01*
X172306333Y-92390904D01*
X172401571Y-92295666D01*
X172496809Y-92248046D01*
X173353952Y-93248046D02*
X173353952Y-92248046D01*
X173782523Y-93248046D02*
X173782523Y-92724237D01*
X173734904Y-92628999D01*
X173639666Y-92581380D01*
X173496809Y-92581380D01*
X173401571Y-92628999D01*
X173353952Y-92676618D01*
X174258714Y-93248046D02*
X174258714Y-92581380D01*
X174258714Y-92676618D02*
X174306333Y-92628999D01*
X174401571Y-92581380D01*
X174544428Y-92581380D01*
X174639666Y-92628999D01*
X174687285Y-92724237D01*
X174687285Y-93248046D01*
X174687285Y-92724237D02*
X174734904Y-92628999D01*
X174830142Y-92581380D01*
X174973000Y-92581380D01*
X175068238Y-92628999D01*
X175115857Y-92724237D01*
X175115857Y-93248046D01*
X169353952Y-90658380D02*
X168782523Y-90658380D01*
X169068238Y-90658380D02*
X169068238Y-89658380D01*
X168973000Y-89801238D01*
X168877761Y-89896476D01*
X168782523Y-89944095D01*
X169973000Y-89658380D02*
X170068238Y-89658380D01*
X170163476Y-89706000D01*
X170211095Y-89753619D01*
X170258714Y-89848857D01*
X170306333Y-90039333D01*
X170306333Y-90277428D01*
X170258714Y-90467904D01*
X170211095Y-90563142D01*
X170163476Y-90610761D01*
X170068238Y-90658380D01*
X169973000Y-90658380D01*
X169877761Y-90610761D01*
X169830142Y-90563142D01*
X169782523Y-90467904D01*
X169734904Y-90277428D01*
X169734904Y-90039333D01*
X169782523Y-89848857D01*
X169830142Y-89753619D01*
X169877761Y-89706000D01*
X169973000Y-89658380D01*
X170734904Y-90658380D02*
X170734904Y-89658380D01*
X170830142Y-90277428D02*
X171115857Y-90658380D01*
X171115857Y-89991714D02*
X170734904Y-90372666D01*
X172496809Y-89658380D02*
X172687285Y-89658380D01*
X172782523Y-89706000D01*
X172877761Y-89801238D01*
X172925380Y-89991714D01*
X172925380Y-90325047D01*
X172877761Y-90515523D01*
X172782523Y-90610761D01*
X172687285Y-90658380D01*
X172496809Y-90658380D01*
X172401571Y-90610761D01*
X172306333Y-90515523D01*
X172258714Y-90325047D01*
X172258714Y-89991714D01*
X172306333Y-89801238D01*
X172401571Y-89706000D01*
X172496809Y-89658380D01*
X173353952Y-90658380D02*
X173353952Y-89658380D01*
X173782523Y-90658380D02*
X173782523Y-90134571D01*
X173734904Y-90039333D01*
X173639666Y-89991714D01*
X173496809Y-89991714D01*
X173401571Y-90039333D01*
X173353952Y-90086952D01*
X174258714Y-90658380D02*
X174258714Y-89991714D01*
X174258714Y-90086952D02*
X174306333Y-90039333D01*
X174401571Y-89991714D01*
X174544428Y-89991714D01*
X174639666Y-90039333D01*
X174687285Y-90134571D01*
X174687285Y-90658380D01*
X174687285Y-90134571D02*
X174734904Y-90039333D01*
X174830142Y-89991714D01*
X174973000Y-89991714D01*
X175068238Y-90039333D01*
X175115857Y-90134571D01*
X175115857Y-90658380D01*
X193767000Y-85170285D02*
X193338428Y-85170285D01*
X193552714Y-85170285D02*
X193552714Y-84420285D01*
X193481285Y-84527428D01*
X193409857Y-84598857D01*
X193338428Y-84634571D01*
X194088428Y-84884571D02*
X194659857Y-84884571D01*
X133510190Y-94122380D02*
X133034000Y-94122380D01*
X133034000Y-93122380D01*
X133748285Y-93122380D02*
X134414952Y-93122380D01*
X133748285Y-94122380D01*
X134414952Y-94122380D01*
X134843523Y-94122380D02*
X135034000Y-94122380D01*
X135129238Y-94074761D01*
X135176857Y-94027142D01*
X135272095Y-93884285D01*
X135319714Y-93693809D01*
X135319714Y-93312857D01*
X135272095Y-93217619D01*
X135224476Y-93170000D01*
X135129238Y-93122380D01*
X134938761Y-93122380D01*
X134843523Y-93170000D01*
X134795904Y-93217619D01*
X134748285Y-93312857D01*
X134748285Y-93550952D01*
X134795904Y-93646190D01*
X134843523Y-93693809D01*
X134938761Y-93741428D01*
X135129238Y-93741428D01*
X135224476Y-93693809D01*
X135272095Y-93646190D01*
X135319714Y-93550952D01*
X136081619Y-93598571D02*
X135748285Y-93598571D01*
X135748285Y-94122380D02*
X135748285Y-93122380D01*
X136224476Y-93122380D01*
X137176857Y-94027142D02*
X137129238Y-94074761D01*
X136986380Y-94122380D01*
X136891142Y-94122380D01*
X136748285Y-94074761D01*
X136653047Y-93979523D01*
X136605428Y-93884285D01*
X136557809Y-93693809D01*
X136557809Y-93550952D01*
X136605428Y-93360476D01*
X136653047Y-93265238D01*
X136748285Y-93170000D01*
X136891142Y-93122380D01*
X136986380Y-93122380D01*
X137129238Y-93170000D01*
X137176857Y-93217619D01*
X138129238Y-94122380D02*
X137557809Y-94122380D01*
X137843523Y-94122380D02*
X137843523Y-93122380D01*
X137748285Y-93265238D01*
X137653047Y-93360476D01*
X137557809Y-93408095D01*
X138462571Y-93122380D02*
X139129238Y-93122380D01*
X138700666Y-94122380D01*
X132391142Y-95732380D02*
X132391142Y-94732380D01*
X132629238Y-94732380D01*
X132772095Y-94780000D01*
X132867333Y-94875238D01*
X132914952Y-94970476D01*
X132962571Y-95160952D01*
X132962571Y-95303809D01*
X132914952Y-95494285D01*
X132867333Y-95589523D01*
X132772095Y-95684761D01*
X132629238Y-95732380D01*
X132391142Y-95732380D01*
X133343523Y-95446666D02*
X133819714Y-95446666D01*
X133248285Y-95732380D02*
X133581619Y-94732380D01*
X133914952Y-95732380D01*
X134105428Y-94732380D02*
X134676857Y-94732380D01*
X134391142Y-95732380D02*
X134391142Y-94732380D01*
X135010190Y-95208571D02*
X135343523Y-95208571D01*
X135486380Y-95732380D02*
X135010190Y-95732380D01*
X135010190Y-94732380D01*
X135486380Y-94732380D01*
X136391142Y-95732380D02*
X135914952Y-95732380D01*
X135914952Y-94732380D01*
X138010190Y-94780000D02*
X137914952Y-94732380D01*
X137772095Y-94732380D01*
X137629238Y-94780000D01*
X137534000Y-94875238D01*
X137486380Y-94970476D01*
X137438761Y-95160952D01*
X137438761Y-95303809D01*
X137486380Y-95494285D01*
X137534000Y-95589523D01*
X137629238Y-95684761D01*
X137772095Y-95732380D01*
X137867333Y-95732380D01*
X138010190Y-95684761D01*
X138057809Y-95637142D01*
X138057809Y-95303809D01*
X137867333Y-95303809D01*
X138438761Y-95446666D02*
X138914952Y-95446666D01*
X138343523Y-95732380D02*
X138676857Y-94732380D01*
X139010190Y-95732380D01*
X139819714Y-95732380D02*
X139343523Y-95732380D01*
X139343523Y-94732380D01*
X141644666Y-102878380D02*
X141073238Y-102878380D01*
X141358952Y-102878380D02*
X141358952Y-101878380D01*
X141263714Y-102021238D01*
X141168476Y-102116476D01*
X141073238Y-102164095D01*
X142073238Y-102497428D02*
X142835142Y-102497428D01*
X193223571Y-90881535D02*
X192795000Y-90881535D01*
X193009285Y-90881535D02*
X193009285Y-90131535D01*
X192937857Y-90238678D01*
X192866428Y-90310107D01*
X192795000Y-90345821D01*
X194437857Y-90845821D02*
X194366428Y-90881535D01*
X194223571Y-90881535D01*
X194152142Y-90845821D01*
X194116428Y-90810107D01*
X194080714Y-90738678D01*
X194080714Y-90524392D01*
X194116428Y-90452964D01*
X194152142Y-90417250D01*
X194223571Y-90381535D01*
X194366428Y-90381535D01*
X194437857Y-90417250D01*
X194759285Y-90881535D02*
X194759285Y-90381535D01*
X194759285Y-90452964D02*
X194795000Y-90417250D01*
X194866428Y-90381535D01*
X194973571Y-90381535D01*
X195045000Y-90417250D01*
X195080714Y-90488678D01*
X195080714Y-90881535D01*
X195080714Y-90488678D02*
X195116428Y-90417250D01*
X195187857Y-90381535D01*
X195295000Y-90381535D01*
X195366428Y-90417250D01*
X195402142Y-90488678D01*
X195402142Y-90881535D01*
X196223571Y-90131535D02*
X196652142Y-90131535D01*
X196437857Y-90881535D02*
X196437857Y-90131535D01*
X197223571Y-90881535D02*
X197223571Y-90488678D01*
X197187857Y-90417250D01*
X197116428Y-90381535D01*
X196973571Y-90381535D01*
X196902142Y-90417250D01*
X197223571Y-90845821D02*
X197152142Y-90881535D01*
X196973571Y-90881535D01*
X196902142Y-90845821D01*
X196866428Y-90774392D01*
X196866428Y-90702964D01*
X196902142Y-90631535D01*
X196973571Y-90595821D01*
X197152142Y-90595821D01*
X197223571Y-90560107D01*
X197687857Y-90881535D02*
X197616428Y-90845821D01*
X197580714Y-90774392D01*
X197580714Y-90131535D01*
X198080714Y-90881535D02*
X198009285Y-90845821D01*
X197973571Y-90774392D01*
X197973571Y-90131535D01*
X192134285Y-92089035D02*
X192134285Y-91339035D01*
X192420000Y-91339035D01*
X192491428Y-91374750D01*
X192527142Y-91410464D01*
X192562857Y-91481892D01*
X192562857Y-91589035D01*
X192527142Y-91660464D01*
X192491428Y-91696178D01*
X192420000Y-91731892D01*
X192134285Y-91731892D01*
X193205714Y-91589035D02*
X193205714Y-92089035D01*
X192884285Y-91589035D02*
X192884285Y-91981892D01*
X192920000Y-92053321D01*
X192991428Y-92089035D01*
X193098571Y-92089035D01*
X193170000Y-92053321D01*
X193205714Y-92017607D01*
X193527142Y-92053321D02*
X193598571Y-92089035D01*
X193741428Y-92089035D01*
X193812857Y-92053321D01*
X193848571Y-91981892D01*
X193848571Y-91946178D01*
X193812857Y-91874750D01*
X193741428Y-91839035D01*
X193634285Y-91839035D01*
X193562857Y-91803321D01*
X193527142Y-91731892D01*
X193527142Y-91696178D01*
X193562857Y-91624750D01*
X193634285Y-91589035D01*
X193741428Y-91589035D01*
X193812857Y-91624750D01*
X194170000Y-92089035D02*
X194170000Y-91339035D01*
X194491428Y-92089035D02*
X194491428Y-91696178D01*
X194455714Y-91624750D01*
X194384285Y-91589035D01*
X194277142Y-91589035D01*
X194205714Y-91624750D01*
X194170000Y-91660464D01*
X195670000Y-91696178D02*
X195777142Y-91731892D01*
X195812857Y-91767607D01*
X195848571Y-91839035D01*
X195848571Y-91946178D01*
X195812857Y-92017607D01*
X195777142Y-92053321D01*
X195705714Y-92089035D01*
X195420000Y-92089035D01*
X195420000Y-91339035D01*
X195670000Y-91339035D01*
X195741428Y-91374750D01*
X195777142Y-91410464D01*
X195812857Y-91481892D01*
X195812857Y-91553321D01*
X195777142Y-91624750D01*
X195741428Y-91660464D01*
X195670000Y-91696178D01*
X195420000Y-91696178D01*
X196491428Y-91589035D02*
X196491428Y-92089035D01*
X196170000Y-91589035D02*
X196170000Y-91981892D01*
X196205714Y-92053321D01*
X196277142Y-92089035D01*
X196384285Y-92089035D01*
X196455714Y-92053321D01*
X196491428Y-92017607D01*
X196741428Y-91589035D02*
X197027142Y-91589035D01*
X196848571Y-91339035D02*
X196848571Y-91981892D01*
X196884285Y-92053321D01*
X196955714Y-92089035D01*
X197027142Y-92089035D01*
X197170000Y-91589035D02*
X197455714Y-91589035D01*
X197277142Y-91339035D02*
X197277142Y-91981892D01*
X197312857Y-92053321D01*
X197384285Y-92089035D01*
X197455714Y-92089035D01*
X197812857Y-92089035D02*
X197741428Y-92053321D01*
X197705714Y-92017607D01*
X197670000Y-91946178D01*
X197670000Y-91731892D01*
X197705714Y-91660464D01*
X197741428Y-91624750D01*
X197812857Y-91589035D01*
X197920000Y-91589035D01*
X197991428Y-91624750D01*
X198027142Y-91660464D01*
X198062857Y-91731892D01*
X198062857Y-91946178D01*
X198027142Y-92017607D01*
X197991428Y-92053321D01*
X197920000Y-92089035D01*
X197812857Y-92089035D01*
X198384285Y-91589035D02*
X198384285Y-92089035D01*
X198384285Y-91660464D02*
X198420000Y-91624750D01*
X198491428Y-91589035D01*
X198598571Y-91589035D01*
X198670000Y-91624750D01*
X198705714Y-91696178D01*
X198705714Y-92089035D01*
X169809857Y-73797428D02*
X170571761Y-73797428D01*
X171571761Y-74178380D02*
X171000333Y-74178380D01*
X171286047Y-74178380D02*
X171286047Y-73178380D01*
X171190809Y-73321238D01*
X171095571Y-73416476D01*
X171000333Y-73464095D01*
X108781000Y-85053714D02*
X108781000Y-83625142D01*
X109066714Y-86330380D02*
X108495285Y-86330380D01*
X108781000Y-86330380D02*
X108781000Y-85330380D01*
X108685761Y-85473238D01*
X108590523Y-85568476D01*
X108495285Y-85616095D01*
X106905857Y-88330071D02*
X107013000Y-88365785D01*
X107191571Y-88365785D01*
X107263000Y-88330071D01*
X107298714Y-88294357D01*
X107334428Y-88222928D01*
X107334428Y-88151500D01*
X107298714Y-88080071D01*
X107263000Y-88044357D01*
X107191571Y-88008642D01*
X107048714Y-87972928D01*
X106977285Y-87937214D01*
X106941571Y-87901500D01*
X106905857Y-87830071D01*
X106905857Y-87758642D01*
X106941571Y-87687214D01*
X106977285Y-87651500D01*
X107048714Y-87615785D01*
X107227285Y-87615785D01*
X107334428Y-87651500D01*
X107620142Y-88330071D02*
X107727285Y-88365785D01*
X107905857Y-88365785D01*
X107977285Y-88330071D01*
X108013000Y-88294357D01*
X108048714Y-88222928D01*
X108048714Y-88151500D01*
X108013000Y-88080071D01*
X107977285Y-88044357D01*
X107905857Y-88008642D01*
X107763000Y-87972928D01*
X107691571Y-87937214D01*
X107655857Y-87901500D01*
X107620142Y-87830071D01*
X107620142Y-87758642D01*
X107655857Y-87687214D01*
X107691571Y-87651500D01*
X107763000Y-87615785D01*
X107941571Y-87615785D01*
X108048714Y-87651500D01*
X108263000Y-87615785D02*
X108691571Y-87615785D01*
X108477285Y-88365785D02*
X108477285Y-87615785D01*
X105477285Y-88894714D02*
X105513000Y-88859000D01*
X105584428Y-88823285D01*
X105763000Y-88823285D01*
X105834428Y-88859000D01*
X105870142Y-88894714D01*
X105905857Y-88966142D01*
X105905857Y-89037571D01*
X105870142Y-89144714D01*
X105441571Y-89573285D01*
X105905857Y-89573285D01*
X106263000Y-89573285D02*
X106405857Y-89573285D01*
X106477285Y-89537571D01*
X106513000Y-89501857D01*
X106584428Y-89394714D01*
X106620142Y-89251857D01*
X106620142Y-88966142D01*
X106584428Y-88894714D01*
X106548714Y-88859000D01*
X106477285Y-88823285D01*
X106334428Y-88823285D01*
X106263000Y-88859000D01*
X106227285Y-88894714D01*
X106191571Y-88966142D01*
X106191571Y-89144714D01*
X106227285Y-89216142D01*
X106263000Y-89251857D01*
X106334428Y-89287571D01*
X106477285Y-89287571D01*
X106548714Y-89251857D01*
X106584428Y-89216142D01*
X106620142Y-89144714D01*
X107298714Y-89573285D02*
X106941571Y-89573285D01*
X106941571Y-88823285D01*
X107548714Y-89180428D02*
X107798714Y-89180428D01*
X107905857Y-89573285D02*
X107548714Y-89573285D01*
X107548714Y-88823285D01*
X107905857Y-88823285D01*
X108370142Y-88823285D02*
X108441571Y-88823285D01*
X108513000Y-88859000D01*
X108548714Y-88894714D01*
X108584428Y-88966142D01*
X108620142Y-89109000D01*
X108620142Y-89287571D01*
X108584428Y-89430428D01*
X108548714Y-89501857D01*
X108513000Y-89537571D01*
X108441571Y-89573285D01*
X108370142Y-89573285D01*
X108298714Y-89537571D01*
X108263000Y-89501857D01*
X108227285Y-89430428D01*
X108191571Y-89287571D01*
X108191571Y-89109000D01*
X108227285Y-88966142D01*
X108263000Y-88894714D01*
X108298714Y-88859000D01*
X108370142Y-88823285D01*
X109334428Y-89573285D02*
X108905857Y-89573285D01*
X109120142Y-89573285D02*
X109120142Y-88823285D01*
X109048714Y-88930428D01*
X108977285Y-89001857D01*
X108905857Y-89037571D01*
X109798714Y-88823285D02*
X109870142Y-88823285D01*
X109941571Y-88859000D01*
X109977285Y-88894714D01*
X110013000Y-88966142D01*
X110048714Y-89109000D01*
X110048714Y-89287571D01*
X110013000Y-89430428D01*
X109977285Y-89501857D01*
X109941571Y-89537571D01*
X109870142Y-89573285D01*
X109798714Y-89573285D01*
X109727285Y-89537571D01*
X109691571Y-89501857D01*
X109655857Y-89430428D01*
X109620142Y-89287571D01*
X109620142Y-89109000D01*
X109655857Y-88966142D01*
X109691571Y-88894714D01*
X109727285Y-88859000D01*
X109798714Y-88823285D01*
X105495142Y-90102214D02*
X105530857Y-90066500D01*
X105602285Y-90030785D01*
X105780857Y-90030785D01*
X105852285Y-90066500D01*
X105888000Y-90102214D01*
X105923714Y-90173642D01*
X105923714Y-90245071D01*
X105888000Y-90352214D01*
X105459428Y-90780785D01*
X105923714Y-90780785D01*
X106352285Y-90352214D02*
X106280857Y-90316500D01*
X106245142Y-90280785D01*
X106209428Y-90209357D01*
X106209428Y-90173642D01*
X106245142Y-90102214D01*
X106280857Y-90066500D01*
X106352285Y-90030785D01*
X106495142Y-90030785D01*
X106566571Y-90066500D01*
X106602285Y-90102214D01*
X106638000Y-90173642D01*
X106638000Y-90209357D01*
X106602285Y-90280785D01*
X106566571Y-90316500D01*
X106495142Y-90352214D01*
X106352285Y-90352214D01*
X106280857Y-90387928D01*
X106245142Y-90423642D01*
X106209428Y-90495071D01*
X106209428Y-90637928D01*
X106245142Y-90709357D01*
X106280857Y-90745071D01*
X106352285Y-90780785D01*
X106495142Y-90780785D01*
X106566571Y-90745071D01*
X106602285Y-90709357D01*
X106638000Y-90637928D01*
X106638000Y-90495071D01*
X106602285Y-90423642D01*
X106566571Y-90387928D01*
X106495142Y-90352214D01*
X107316571Y-90780785D02*
X106959428Y-90780785D01*
X106959428Y-90030785D01*
X107816571Y-90387928D02*
X107566571Y-90387928D01*
X107566571Y-90780785D02*
X107566571Y-90030785D01*
X107923714Y-90030785D01*
X108352285Y-90030785D02*
X108423714Y-90030785D01*
X108495142Y-90066500D01*
X108530857Y-90102214D01*
X108566571Y-90173642D01*
X108602285Y-90316500D01*
X108602285Y-90495071D01*
X108566571Y-90637928D01*
X108530857Y-90709357D01*
X108495142Y-90745071D01*
X108423714Y-90780785D01*
X108352285Y-90780785D01*
X108280857Y-90745071D01*
X108245142Y-90709357D01*
X108209428Y-90637928D01*
X108173714Y-90495071D01*
X108173714Y-90316500D01*
X108209428Y-90173642D01*
X108245142Y-90102214D01*
X108280857Y-90066500D01*
X108352285Y-90030785D01*
X109245142Y-90280785D02*
X109245142Y-90780785D01*
X109066571Y-89995071D02*
X108888000Y-90530785D01*
X109352285Y-90530785D01*
X109780857Y-90030785D02*
X109852285Y-90030785D01*
X109923714Y-90066500D01*
X109959428Y-90102214D01*
X109995142Y-90173642D01*
X110030857Y-90316500D01*
X110030857Y-90495071D01*
X109995142Y-90637928D01*
X109959428Y-90709357D01*
X109923714Y-90745071D01*
X109852285Y-90780785D01*
X109780857Y-90780785D01*
X109709428Y-90745071D01*
X109673714Y-90709357D01*
X109638000Y-90637928D01*
X109602285Y-90495071D01*
X109602285Y-90316500D01*
X109638000Y-90173642D01*
X109673714Y-90102214D01*
X109709428Y-90066500D01*
X109780857Y-90030785D01*
X169353952Y-98427380D02*
X168782523Y-98427380D01*
X169068238Y-98427380D02*
X169068238Y-97427380D01*
X168973000Y-97570238D01*
X168877761Y-97665476D01*
X168782523Y-97713095D01*
X169973000Y-97427380D02*
X170068238Y-97427380D01*
X170163476Y-97475000D01*
X170211095Y-97522619D01*
X170258714Y-97617857D01*
X170306333Y-97808333D01*
X170306333Y-98046428D01*
X170258714Y-98236904D01*
X170211095Y-98332142D01*
X170163476Y-98379761D01*
X170068238Y-98427380D01*
X169973000Y-98427380D01*
X169877761Y-98379761D01*
X169830142Y-98332142D01*
X169782523Y-98236904D01*
X169734904Y-98046428D01*
X169734904Y-97808333D01*
X169782523Y-97617857D01*
X169830142Y-97522619D01*
X169877761Y-97475000D01*
X169973000Y-97427380D01*
X170734904Y-98427380D02*
X170734904Y-97427380D01*
X170830142Y-98046428D02*
X171115857Y-98427380D01*
X171115857Y-97760714D02*
X170734904Y-98141666D01*
X172496809Y-97427380D02*
X172687285Y-97427380D01*
X172782523Y-97475000D01*
X172877761Y-97570238D01*
X172925380Y-97760714D01*
X172925380Y-98094047D01*
X172877761Y-98284523D01*
X172782523Y-98379761D01*
X172687285Y-98427380D01*
X172496809Y-98427380D01*
X172401571Y-98379761D01*
X172306333Y-98284523D01*
X172258714Y-98094047D01*
X172258714Y-97760714D01*
X172306333Y-97570238D01*
X172401571Y-97475000D01*
X172496809Y-97427380D01*
X173353952Y-98427380D02*
X173353952Y-97427380D01*
X173782523Y-98427380D02*
X173782523Y-97903571D01*
X173734904Y-97808333D01*
X173639666Y-97760714D01*
X173496809Y-97760714D01*
X173401571Y-97808333D01*
X173353952Y-97855952D01*
X174258714Y-98427380D02*
X174258714Y-97760714D01*
X174258714Y-97855952D02*
X174306333Y-97808333D01*
X174401571Y-97760714D01*
X174544428Y-97760714D01*
X174639666Y-97808333D01*
X174687285Y-97903571D01*
X174687285Y-98427380D01*
X174687285Y-97903571D02*
X174734904Y-97808333D01*
X174830142Y-97760714D01*
X174973000Y-97760714D01*
X175068238Y-97808333D01*
X175115857Y-97903571D01*
X175115857Y-98427380D01*
X192828380Y-83553904D02*
X192828380Y-82887238D01*
X193828380Y-83315809D01*
X193161714Y-82077714D02*
X193828380Y-82077714D01*
X192780761Y-82315809D02*
X193495047Y-82553904D01*
X193495047Y-81934857D01*
X193828380Y-81553904D02*
X192828380Y-81553904D01*
X193304571Y-81553904D02*
X193304571Y-80982476D01*
X193828380Y-80982476D02*
X192828380Y-80982476D01*
X193733142Y-79934857D02*
X193780761Y-79982476D01*
X193828380Y-80125333D01*
X193828380Y-80220571D01*
X193780761Y-80363428D01*
X193685523Y-80458666D01*
X193590285Y-80506285D01*
X193399809Y-80553904D01*
X193256952Y-80553904D01*
X193066476Y-80506285D01*
X192971238Y-80458666D01*
X192876000Y-80363428D01*
X192828380Y-80220571D01*
X192828380Y-80125333D01*
X192876000Y-79982476D01*
X192923619Y-79934857D01*
X193828380Y-78982476D02*
X193828380Y-79553904D01*
X193828380Y-79268190D02*
X192828380Y-79268190D01*
X192971238Y-79363428D01*
X193066476Y-79458666D01*
X193114095Y-79553904D01*
X192828380Y-78125333D02*
X192828380Y-78315809D01*
X192876000Y-78411047D01*
X192923619Y-78458666D01*
X193066476Y-78553904D01*
X193256952Y-78601523D01*
X193637904Y-78601523D01*
X193733142Y-78553904D01*
X193780761Y-78506285D01*
X193828380Y-78411047D01*
X193828380Y-78220571D01*
X193780761Y-78125333D01*
X193733142Y-78077714D01*
X193637904Y-78030095D01*
X193399809Y-78030095D01*
X193304571Y-78077714D01*
X193256952Y-78125333D01*
X193209333Y-78220571D01*
X193209333Y-78411047D01*
X193256952Y-78506285D01*
X193304571Y-78553904D01*
X193399809Y-78601523D01*
X193161714Y-77172952D02*
X193828380Y-77172952D01*
X192780761Y-77411047D02*
X193495047Y-77649142D01*
X193495047Y-77030095D01*
X108755000Y-103526714D02*
X108755000Y-102098142D01*
X109040714Y-104803380D02*
X108469285Y-104803380D01*
X108755000Y-104803380D02*
X108755000Y-103803380D01*
X108659761Y-103946238D01*
X108564523Y-104041476D01*
X108469285Y-104089095D01*
D11*
%TO.C,C3*%
X192973714Y-75385190D02*
X192688000Y-75385190D01*
X192830857Y-75385190D02*
X192830857Y-74885190D01*
X192783238Y-74956619D01*
X192735619Y-75004238D01*
X192688000Y-75028047D01*
X193283238Y-74885190D02*
X193330857Y-74885190D01*
X193378476Y-74909000D01*
X193402285Y-74932809D01*
X193426095Y-74980428D01*
X193449904Y-75075666D01*
X193449904Y-75194714D01*
X193426095Y-75289952D01*
X193402285Y-75337571D01*
X193378476Y-75361380D01*
X193330857Y-75385190D01*
X193283238Y-75385190D01*
X193235619Y-75361380D01*
X193211809Y-75337571D01*
X193188000Y-75289952D01*
X193164190Y-75194714D01*
X193164190Y-75075666D01*
X193188000Y-74980428D01*
X193211809Y-74932809D01*
X193235619Y-74909000D01*
X193283238Y-74885190D01*
X193759428Y-74885190D02*
X193807047Y-74885190D01*
X193854666Y-74909000D01*
X193878476Y-74932809D01*
X193902285Y-74980428D01*
X193926095Y-75075666D01*
X193926095Y-75194714D01*
X193902285Y-75289952D01*
X193878476Y-75337571D01*
X193854666Y-75361380D01*
X193807047Y-75385190D01*
X193759428Y-75385190D01*
X193711809Y-75361380D01*
X193688000Y-75337571D01*
X193664190Y-75289952D01*
X193640380Y-75194714D01*
X193640380Y-75075666D01*
X193664190Y-74980428D01*
X193688000Y-74932809D01*
X193711809Y-74909000D01*
X193759428Y-74885190D01*
X194521333Y-75051857D02*
X194521333Y-75385190D01*
X194521333Y-75099476D02*
X194545142Y-75075666D01*
X194592761Y-75051857D01*
X194664190Y-75051857D01*
X194711809Y-75075666D01*
X194735619Y-75123285D01*
X194735619Y-75385190D01*
X195140380Y-75123285D02*
X194973714Y-75123285D01*
X194973714Y-75385190D02*
X194973714Y-74885190D01*
X195211809Y-74885190D01*
%TO.C,C2*%
X109992714Y-121842690D02*
X109707000Y-121842690D01*
X109849857Y-121842690D02*
X109849857Y-121342690D01*
X109802238Y-121414119D01*
X109754619Y-121461738D01*
X109707000Y-121485547D01*
X110302238Y-121342690D02*
X110349857Y-121342690D01*
X110397476Y-121366500D01*
X110421285Y-121390309D01*
X110445095Y-121437928D01*
X110468904Y-121533166D01*
X110468904Y-121652214D01*
X110445095Y-121747452D01*
X110421285Y-121795071D01*
X110397476Y-121818880D01*
X110349857Y-121842690D01*
X110302238Y-121842690D01*
X110254619Y-121818880D01*
X110230809Y-121795071D01*
X110207000Y-121747452D01*
X110183190Y-121652214D01*
X110183190Y-121533166D01*
X110207000Y-121437928D01*
X110230809Y-121390309D01*
X110254619Y-121366500D01*
X110302238Y-121342690D01*
X110778428Y-121342690D02*
X110826047Y-121342690D01*
X110873666Y-121366500D01*
X110897476Y-121390309D01*
X110921285Y-121437928D01*
X110945095Y-121533166D01*
X110945095Y-121652214D01*
X110921285Y-121747452D01*
X110897476Y-121795071D01*
X110873666Y-121818880D01*
X110826047Y-121842690D01*
X110778428Y-121842690D01*
X110730809Y-121818880D01*
X110707000Y-121795071D01*
X110683190Y-121747452D01*
X110659380Y-121652214D01*
X110659380Y-121533166D01*
X110683190Y-121437928D01*
X110707000Y-121390309D01*
X110730809Y-121366500D01*
X110778428Y-121342690D01*
X111540333Y-121509357D02*
X111540333Y-121842690D01*
X111540333Y-121556976D02*
X111564142Y-121533166D01*
X111611761Y-121509357D01*
X111683190Y-121509357D01*
X111730809Y-121533166D01*
X111754619Y-121580785D01*
X111754619Y-121842690D01*
X112159380Y-121580785D02*
X111992714Y-121580785D01*
X111992714Y-121842690D02*
X111992714Y-121342690D01*
X112230809Y-121342690D01*
%TO.C,C1*%
X108187714Y-78561690D02*
X107902000Y-78561690D01*
X108044857Y-78561690D02*
X108044857Y-78061690D01*
X107997238Y-78133119D01*
X107949619Y-78180738D01*
X107902000Y-78204547D01*
X108497238Y-78061690D02*
X108544857Y-78061690D01*
X108592476Y-78085500D01*
X108616285Y-78109309D01*
X108640095Y-78156928D01*
X108663904Y-78252166D01*
X108663904Y-78371214D01*
X108640095Y-78466452D01*
X108616285Y-78514071D01*
X108592476Y-78537880D01*
X108544857Y-78561690D01*
X108497238Y-78561690D01*
X108449619Y-78537880D01*
X108425809Y-78514071D01*
X108402000Y-78466452D01*
X108378190Y-78371214D01*
X108378190Y-78252166D01*
X108402000Y-78156928D01*
X108425809Y-78109309D01*
X108449619Y-78085500D01*
X108497238Y-78061690D01*
X108973428Y-78061690D02*
X109021047Y-78061690D01*
X109068666Y-78085500D01*
X109092476Y-78109309D01*
X109116285Y-78156928D01*
X109140095Y-78252166D01*
X109140095Y-78371214D01*
X109116285Y-78466452D01*
X109092476Y-78514071D01*
X109068666Y-78537880D01*
X109021047Y-78561690D01*
X108973428Y-78561690D01*
X108925809Y-78537880D01*
X108902000Y-78514071D01*
X108878190Y-78466452D01*
X108854380Y-78371214D01*
X108854380Y-78252166D01*
X108878190Y-78156928D01*
X108902000Y-78109309D01*
X108925809Y-78085500D01*
X108973428Y-78061690D01*
X109735333Y-78228357D02*
X109735333Y-78561690D01*
X109735333Y-78275976D02*
X109759142Y-78252166D01*
X109806761Y-78228357D01*
X109878190Y-78228357D01*
X109925809Y-78252166D01*
X109949619Y-78299785D01*
X109949619Y-78561690D01*
X110354380Y-78299785D02*
X110187714Y-78299785D01*
X110187714Y-78561690D02*
X110187714Y-78061690D01*
X110425809Y-78061690D01*
D10*
%TO.C,R10*%
X182987500Y-81052000D02*
X186588500Y-81052000D01*
X186588500Y-81052000D02*
X186588500Y-82982000D01*
X186588500Y-82982000D02*
X182987500Y-82982000D01*
X182987500Y-82982000D02*
X182987500Y-81052000D01*
%TO.C,R8*%
X182987500Y-77242000D02*
X186588500Y-77242000D01*
X186588500Y-77242000D02*
X186588500Y-79172000D01*
X186588500Y-79172000D02*
X182987500Y-79172000D01*
X182987500Y-79172000D02*
X182987500Y-77242000D01*
%TO.C,R11*%
X182987500Y-82995000D02*
X186588500Y-82995000D01*
X186588500Y-82995000D02*
X186588500Y-84925000D01*
X186588500Y-84925000D02*
X182987500Y-84925000D01*
X182987500Y-84925000D02*
X182987500Y-82995000D01*
%TO.C,R5*%
X182987500Y-71528000D02*
X186588500Y-71528000D01*
X186588500Y-71528000D02*
X186588500Y-73458000D01*
X186588500Y-73458000D02*
X182987500Y-73458000D01*
X182987500Y-73458000D02*
X182987500Y-71528000D01*
%TO.C,U6*%
X167131500Y-72521500D02*
X167131500Y-85221500D01*
X174751500Y-85221500D02*
X174751500Y-72521500D01*
D12*
X166771500Y-72161500D02*
X168401500Y-72161500D01*
D10*
X167131500Y-85221500D02*
X174751500Y-85221500D01*
D12*
X166771500Y-73791500D02*
X166771500Y-72161500D01*
D10*
X174751500Y-72521500D02*
X167131500Y-72521500D01*
%TO.C,C3*%
X191117000Y-72676000D02*
X196599000Y-72676000D01*
X196599000Y-72676000D02*
X196599000Y-75609000D01*
X196599000Y-75609000D02*
X191117000Y-75609000D01*
X191117000Y-75609000D02*
X191117000Y-72676000D01*
%TO.C,R7*%
X182987500Y-75334000D02*
X186588500Y-75334000D01*
X186588500Y-75334000D02*
X186588500Y-77264000D01*
X186588500Y-77264000D02*
X182987500Y-77264000D01*
X182987500Y-77264000D02*
X182987500Y-75334000D01*
%TO.C,C2*%
X108136000Y-119133500D02*
X113618000Y-119133500D01*
X113618000Y-119133500D02*
X113618000Y-122066500D01*
X113618000Y-122066500D02*
X108136000Y-122066500D01*
X108136000Y-122066500D02*
X108136000Y-119133500D01*
%TO.C,C1*%
X106331000Y-75852500D02*
X111813000Y-75852500D01*
X111813000Y-75852500D02*
X111813000Y-78785500D01*
X111813000Y-78785500D02*
X106331000Y-78785500D01*
X106331000Y-78785500D02*
X106331000Y-75852500D01*
%TO.C,R9*%
X182987500Y-79145000D02*
X186588500Y-79145000D01*
X186588500Y-79145000D02*
X186588500Y-81075000D01*
X186588500Y-81075000D02*
X182987500Y-81075000D01*
X182987500Y-81075000D02*
X182987500Y-79145000D01*
%TO.C,R6*%
X182987500Y-73433000D02*
X186588500Y-73433000D01*
X186588500Y-73433000D02*
X186588500Y-75363000D01*
X186588500Y-75363000D02*
X182987500Y-75363000D01*
X182987500Y-75363000D02*
X182987500Y-73433000D01*
%TO.C,R12*%
X182987500Y-84866000D02*
X186588500Y-84866000D01*
X186588500Y-84866000D02*
X186588500Y-86796000D01*
X186588500Y-86796000D02*
X182987500Y-86796000D01*
X182987500Y-86796000D02*
X182987500Y-84866000D01*
%TD*%
M02*
