%TF.GenerationSoftware,KiCad,Pcbnew,(6.0.2)*%
%TF.CreationDate,2022-10-23T13:47:45-05:00*%
%TF.ProjectId,REF1220,52454631-3232-4302-9e6b-696361645f70,rev?*%
%TF.SameCoordinates,Original*%
%TF.FileFunction,Soldermask,Bot*%
%TF.FilePolarity,Negative*%
%FSLAX46Y46*%
G04 Gerber Fmt 4.6, Leading zero omitted, Abs format (unit mm)*
G04 Created by KiCad (PCBNEW (6.0.2)) date 2022-10-23 13:47:45*
%MOMM*%
%LPD*%
G01*
G04 APERTURE LIST*
%ADD10R,1.700000X1.700000*%
%ADD11C,4.680000*%
%ADD12R,1.530000X6.250000*%
%ADD13C,3.500000*%
%ADD14R,1.530000X9.000000*%
%ADD15R,1.590000X1.590000*%
%ADD16R,1.600000X1.600000*%
%ADD17C,1.600000*%
G04 APERTURE END LIST*
D10*
%TO.C,J1*%
X142679000Y-113756000D03*
X145342000Y-113756000D03*
X147842000Y-113756000D03*
X150379000Y-113756000D03*
X142682000Y-75656000D03*
X145259000Y-75656000D03*
X147760000Y-75656000D03*
X150339000Y-75656000D03*
X154151000Y-113796000D03*
X154150000Y-111253000D03*
X129979000Y-113754000D03*
%TD*%
D11*
%TO.C,Hole2*%
X104697000Y-120032300D03*
%TD*%
D12*
%TO.C,J3*%
X119142000Y-66088000D03*
X121660000Y-66088000D03*
X124185000Y-66088000D03*
X126712000Y-66088000D03*
X129231000Y-66088000D03*
X131750000Y-66088000D03*
X134273000Y-66088000D03*
X136792000Y-66088000D03*
X139311000Y-66088000D03*
X141839000Y-66088000D03*
X144364000Y-66088000D03*
X146885000Y-66088000D03*
X149409000Y-66088000D03*
X151929000Y-66088000D03*
X154449000Y-66088000D03*
X156968000Y-66088000D03*
X159486000Y-66088000D03*
X162010000Y-66088000D03*
X164536000Y-66088000D03*
X167054000Y-66088000D03*
X169574000Y-66088000D03*
X172093000Y-66088000D03*
X174623000Y-66088000D03*
X177149000Y-66088000D03*
X179668000Y-66088000D03*
%TD*%
D13*
%TO.C,Hole6*%
X120256000Y-104908000D03*
%TD*%
D14*
%TO.C,J5*%
X119142000Y-129159000D03*
X121660000Y-129159000D03*
X124185000Y-129159000D03*
X126712000Y-129159000D03*
X129231000Y-129159000D03*
X131750000Y-129159000D03*
X134273000Y-129159000D03*
X136792000Y-129159000D03*
X139311000Y-129159000D03*
X141839000Y-129159000D03*
X144364000Y-129159000D03*
X146885000Y-129159000D03*
X149409000Y-129159000D03*
X151929000Y-129159000D03*
X154449000Y-129159000D03*
X156968000Y-129159000D03*
X159486000Y-129159000D03*
X162010000Y-129159000D03*
X164536000Y-129159000D03*
X167054000Y-129159000D03*
X169574000Y-129159000D03*
X172093000Y-129159000D03*
X174623000Y-129159000D03*
X177149000Y-129159000D03*
X179668000Y-129159000D03*
%TD*%
D15*
%TO.C,SW1*%
X193071500Y-94269500D03*
X193111500Y-87919500D03*
X197557500Y-94272500D03*
X197596500Y-87920500D03*
%TD*%
D16*
%TO.C,U6*%
X168401500Y-73791500D03*
D17*
X168401500Y-76331500D03*
X168401500Y-78871500D03*
X168401500Y-81411500D03*
X168401500Y-83951500D03*
X173481500Y-83951500D03*
X173481500Y-81411500D03*
X173481500Y-78871500D03*
X173481500Y-76331500D03*
X173481500Y-73791500D03*
%TD*%
D11*
%TO.C,Hole4*%
X194154000Y-120077300D03*
%TD*%
D13*
%TO.C,Hole7*%
X178826000Y-84596000D03*
%TD*%
%TO.C,Hole8*%
X178755600Y-104875000D03*
%TD*%
D11*
%TO.C,Hole3*%
X190979000Y-66259300D03*
%TD*%
D13*
%TO.C,Hole5*%
X120337000Y-84555000D03*
%TD*%
D11*
%TO.C,Hole1*%
X108548000Y-66220300D03*
%TD*%
M02*
