%TF.GenerationSoftware,KiCad,Pcbnew,(6.0.2)*%
%TF.CreationDate,2022-10-22T23:08:43-05:00*%
%TF.ProjectId,REF1220,52454631-3232-4302-9e6b-696361645f70,rev?*%
%TF.SameCoordinates,Original*%
%TF.FileFunction,Copper,L1,Top*%
%TF.FilePolarity,Positive*%
%FSLAX46Y46*%
G04 Gerber Fmt 4.6, Leading zero omitted, Abs format (unit mm)*
G04 Created by KiCad (PCBNEW (6.0.2)) date 2022-10-22 23:08:43*
%MOMM*%
%LPD*%
G01*
G04 APERTURE LIST*
%TA.AperFunction,NonConductor*%
%ADD10C,0.000001*%
%TD*%
%ADD11C,0.300000*%
%TA.AperFunction,NonConductor*%
%ADD12C,0.300000*%
%TD*%
%TA.AperFunction,ComponentPad*%
%ADD13R,1.700000X1.700000*%
%TD*%
%TA.AperFunction,SMDPad,CuDef*%
%ADD14R,1.710000X1.630000*%
%TD*%
%TA.AperFunction,SMDPad,CuDef*%
%ADD15R,2.250000X0.600000*%
%TD*%
%TA.AperFunction,SMDPad,CuDef*%
%ADD16R,0.600000X2.250000*%
%TD*%
%TA.AperFunction,SMDPad,CuDef*%
%ADD17R,1.310000X1.390000*%
%TD*%
%TA.AperFunction,ComponentPad*%
%ADD18C,4.680000*%
%TD*%
%TA.AperFunction,SMDPad,CuDef*%
%ADD19R,2.000000X0.700000*%
%TD*%
%TA.AperFunction,ComponentPad*%
%ADD20R,1.590000X1.590000*%
%TD*%
%TA.AperFunction,ComponentPad*%
%ADD21R,1.600000X1.600000*%
%TD*%
%TA.AperFunction,ComponentPad*%
%ADD22C,1.600000*%
%TD*%
%TA.AperFunction,SMDPad,CuDef*%
%ADD23R,0.700000X2.270000*%
%TD*%
%TA.AperFunction,SMDPad,CuDef*%
%ADD24R,2.270000X0.700000*%
%TD*%
%TA.AperFunction,SMDPad,CuDef*%
%ADD25R,1.530000X6.250000*%
%TD*%
%TA.AperFunction,SMDPad,CuDef*%
%ADD26R,1.700000X1.630000*%
%TD*%
%TA.AperFunction,SMDPad,CuDef*%
%ADD27R,1.530000X9.000000*%
%TD*%
%TA.AperFunction,ViaPad*%
%ADD28C,0.800000*%
%TD*%
%TA.AperFunction,Conductor*%
%ADD29C,0.250000*%
%TD*%
%TA.AperFunction,Conductor*%
%ADD30C,0.500000*%
%TD*%
G04 APERTURE END LIST*
D10*
X118377001Y-65250700D02*
G75*
G03*
X118377001Y-65250700I0J0D01*
G01*
D11*
D12*
X181574142Y-114378571D02*
X181574142Y-112878571D01*
X181931285Y-112878571D01*
X182145571Y-112950000D01*
X182288428Y-113092857D01*
X182359857Y-113235714D01*
X182431285Y-113521428D01*
X182431285Y-113735714D01*
X182359857Y-114021428D01*
X182288428Y-114164285D01*
X182145571Y-114307142D01*
X181931285Y-114378571D01*
X181574142Y-114378571D01*
X183002714Y-113950000D02*
X183717000Y-113950000D01*
X182859857Y-114378571D02*
X183359857Y-112878571D01*
X183859857Y-114378571D01*
X184145571Y-112878571D02*
X185002714Y-112878571D01*
X184574142Y-114378571D02*
X184574142Y-112878571D01*
X185502714Y-113592857D02*
X186002714Y-113592857D01*
X186217000Y-114378571D02*
X185502714Y-114378571D01*
X185502714Y-112878571D01*
X186217000Y-112878571D01*
X187574142Y-114378571D02*
X186859857Y-114378571D01*
X186859857Y-112878571D01*
X190074142Y-114378571D02*
X189574142Y-113664285D01*
X189217000Y-114378571D02*
X189217000Y-112878571D01*
X189788428Y-112878571D01*
X189931285Y-112950000D01*
X190002714Y-113021428D01*
X190074142Y-113164285D01*
X190074142Y-113378571D01*
X190002714Y-113521428D01*
X189931285Y-113592857D01*
X189788428Y-113664285D01*
X189217000Y-113664285D01*
X190717000Y-113592857D02*
X191217000Y-113592857D01*
X191431285Y-114378571D02*
X190717000Y-114378571D01*
X190717000Y-112878571D01*
X191431285Y-112878571D01*
X192574142Y-113592857D02*
X192074142Y-113592857D01*
X192074142Y-114378571D02*
X192074142Y-112878571D01*
X192788428Y-112878571D01*
X194145571Y-114378571D02*
X193288428Y-114378571D01*
X193717000Y-114378571D02*
X193717000Y-112878571D01*
X193574142Y-113092857D01*
X193431285Y-113235714D01*
X193288428Y-113307142D01*
X194717000Y-113021428D02*
X194788428Y-112950000D01*
X194931285Y-112878571D01*
X195288428Y-112878571D01*
X195431285Y-112950000D01*
X195502714Y-113021428D01*
X195574142Y-113164285D01*
X195574142Y-113307142D01*
X195502714Y-113521428D01*
X194645571Y-114378571D01*
X195574142Y-114378571D01*
X196145571Y-113021428D02*
X196217000Y-112950000D01*
X196359857Y-112878571D01*
X196717000Y-112878571D01*
X196859857Y-112950000D01*
X196931285Y-113021428D01*
X197002714Y-113164285D01*
X197002714Y-113307142D01*
X196931285Y-113521428D01*
X196074142Y-114378571D01*
X197002714Y-114378571D01*
X197931285Y-112878571D02*
X198074142Y-112878571D01*
X198217000Y-112950000D01*
X198288428Y-113021428D01*
X198359857Y-113164285D01*
X198431285Y-113450000D01*
X198431285Y-113807142D01*
X198359857Y-114092857D01*
X198288428Y-114235714D01*
X198217000Y-114307142D01*
X198074142Y-114378571D01*
X197931285Y-114378571D01*
X197788428Y-114307142D01*
X197717000Y-114235714D01*
X197645571Y-114092857D01*
X197574142Y-113807142D01*
X197574142Y-113450000D01*
X197645571Y-113164285D01*
X197717000Y-113021428D01*
X197788428Y-112950000D01*
X197931285Y-112878571D01*
D13*
%TO.P,J1,5,GND*%
%TO.N,/GND*%
X142682000Y-75656000D03*
%TO.P,J1,6,VPP*%
%TO.N,/SC_VPP*%
X145259000Y-75656000D03*
%TO.P,J1,7,I/O*%
%TO.N,/SC_I{slash}O*%
X147760000Y-75656000D03*
%TO.P,J1,8,N/C*%
%TO.N,/SC_N{slash}C2*%
X150339000Y-75656000D03*
%TO.P,J1,11,Mounting_Pin*%
%TO.N,/CD2*%
X129979000Y-113754000D03*
%TO.P,J1,1,VCC*%
%TO.N,/VCC*%
X142679000Y-113756000D03*
%TO.P,J1,2,RST*%
%TO.N,/SC_RST*%
X145342000Y-113756000D03*
%TO.P,J1,3,CLK*%
%TO.N,/SC_CLK*%
X147842000Y-113756000D03*
%TO.P,J1,4,N/C*%
%TO.N,/SC_N{slash}C*%
X150379000Y-113756000D03*
%TO.P,J1,9,CD1*%
%TO.N,/GND*%
X154151000Y-113796000D03*
%TO.P,J1,10,CD2*%
%TO.N,/CD2*%
X154150000Y-111253000D03*
%TD*%
D14*
%TO.P,R4,1*%
%TO.N,/Button*%
X177386000Y-97922400D03*
%TO.P,R4,2*%
%TO.N,/VCC*%
X180613000Y-97929400D03*
%TD*%
D15*
%TO.P,U3,1,I/O*%
%TO.N,unconnected-(U3-Pad1)*%
X144517000Y-102462000D03*
%TO.P,U3,2,I/O*%
%TO.N,/AD15*%
X144517000Y-101462000D03*
%TO.P,U3,3,I/O*%
%TO.N,/AD14*%
X144517000Y-100462000D03*
%TO.P,U3,4,I/O*%
%TO.N,/AD13*%
X144517000Y-99462000D03*
%TO.P,U3,5,I/O*%
%TO.N,/AD12*%
X144517000Y-98462000D03*
%TO.P,U3,6,I/O*%
%TO.N,/{slash}write*%
X144517000Y-97462000D03*
%TO.P,U3,7,I/O*%
%TO.N,/{slash}read_bottom*%
X144517000Y-96462000D03*
%TO.P,U3,8,I/O*%
%TO.N,/AD11*%
X144517000Y-95462000D03*
%TO.P,U3,9,I/O*%
%TO.N,/AD10*%
X144517000Y-94462000D03*
%TO.P,U3,10,I/O*%
%TO.N,/AD9*%
X144517000Y-93462000D03*
%TO.P,U3,11,I/O*%
%TO.N,/AD8*%
X144517000Y-92462000D03*
%TO.P,U3,12,I/O*%
%TO.N,/{slash}COLD_RESET*%
X144517000Y-91462000D03*
%TO.P,U3,13,I/O*%
%TO.N,/AD7*%
X144517000Y-90462000D03*
%TO.P,U3,14,I/O*%
%TO.N,/AD6*%
X144517000Y-89462000D03*
%TO.P,U3,15,I/O*%
%TO.N,/AD5*%
X144517000Y-88462000D03*
%TO.P,U3,16,I/O*%
%TO.N,/AD4*%
X144517000Y-87462000D03*
%TO.P,U3,17,I/O*%
%TO.N,/ALE_L*%
X144517000Y-86462000D03*
%TO.P,U3,18,I/O*%
%TO.N,/ALE_H*%
X144517000Y-85462000D03*
%TO.P,U3,19,I/O*%
%TO.N,/AD3*%
X144517000Y-84462000D03*
D16*
%TO.P,U3,20,I/O*%
%TO.N,/AD2*%
X141517000Y-81462000D03*
%TO.P,U3,21,I/O*%
%TO.N,/AD1*%
X140517000Y-81462000D03*
%TO.P,U3,22,I/O*%
%TO.N,/AD0*%
X139517000Y-81462000D03*
%TO.P,U3,23,I/O*%
%TO.N,/Button*%
X138517000Y-81462000D03*
%TO.P,U3,24,I/O*%
%TO.N,/SC_VPP*%
X137517000Y-81462000D03*
%TO.P,U3,25,VCC*%
%TO.N,/VCC*%
X136517000Y-81462000D03*
%TO.P,U3,26,GND*%
%TO.N,/GND*%
X135517000Y-81462000D03*
%TO.P,U3,27,I/O*%
%TO.N,/CD2*%
X134517000Y-81462000D03*
%TO.P,U3,28,I/O*%
%TO.N,/SC_RST*%
X133517000Y-81462000D03*
%TO.P,U3,29,I/O*%
%TO.N,/SC_CLK*%
X132517000Y-81462000D03*
%TO.P,U3,30,I/O*%
%TO.N,/SC_N{slash}C*%
X131517000Y-81462000D03*
%TO.P,U3,31,I/O*%
%TO.N,/SC_N{slash}C2*%
X130517000Y-81462000D03*
%TO.P,U3,32,I/O*%
%TO.N,/SC_I{slash}O*%
X129517000Y-81462000D03*
D15*
%TO.P,U3,33,I/O*%
%TO.N,unconnected-(U3-Pad33)*%
X126517000Y-84462000D03*
%TO.P,U3,34,I/O*%
%TO.N,/74HC164_DSA_DSB*%
X126517000Y-85462000D03*
%TO.P,U3,35,I/O*%
%TO.N,/74HC164_CP*%
X126517000Y-86462000D03*
%TO.P,U3,36,I/O*%
%TO.N,/GND*%
X126517000Y-87462000D03*
%TO.P,U3,37,I/O*%
%TO.N,unconnected-(U3-Pad37)*%
X126517000Y-88462000D03*
%TO.P,U3,38,I/O*%
%TO.N,unconnected-(U3-Pad38)*%
X126517000Y-89462000D03*
%TO.P,U3,39,I/O*%
%TO.N,unconnected-(U3-Pad39)*%
X126517000Y-90462000D03*
%TO.P,U3,40,I/O*%
%TO.N,/{slash}read_top*%
X126517000Y-91462000D03*
%TO.P,U3,41,I/O*%
%TO.N,/Output_Enable*%
X126517000Y-92462000D03*
%TO.P,U3,42,I/O*%
%TO.N,unconnected-(U3-Pad42)*%
X126517000Y-93462000D03*
%TO.P,U3,43,I/O*%
%TO.N,/Chip_Enable*%
X126517000Y-94462000D03*
%TO.P,U3,44,I/O*%
%TO.N,/A0*%
X126517000Y-95462000D03*
%TO.P,U3,45,I/O*%
%TO.N,/A1*%
X126517000Y-96462000D03*
%TO.P,U3,46,I/O*%
%TO.N,/A2*%
X126517000Y-97462000D03*
%TO.P,U3,47,I/O*%
%TO.N,/A3*%
X126517000Y-98462000D03*
%TO.P,U3,48,I/O*%
%TO.N,/A4*%
X126517000Y-99462000D03*
%TO.P,U3,49,I/O*%
%TO.N,/A5*%
X126517000Y-100462000D03*
%TO.P,U3,50,I/O*%
%TO.N,/A6*%
X126517000Y-101462000D03*
%TO.P,U3,51,I/O*%
%TO.N,/A7*%
X126517000Y-102462000D03*
D16*
%TO.P,U3,52,I/O*%
%TO.N,/A8*%
X129517000Y-105462000D03*
%TO.P,U3,53,I/O*%
%TO.N,/A9*%
X130517000Y-105462000D03*
%TO.P,U3,54,I/O*%
%TO.N,/A10*%
X131517000Y-105462000D03*
%TO.P,U3,55,I/O*%
%TO.N,/A11*%
X132517000Y-105462000D03*
%TO.P,U3,56,I/O*%
%TO.N,/A12*%
X133517000Y-105462000D03*
%TO.P,U3,57,VCC*%
%TO.N,/VCC*%
X134517000Y-105462000D03*
%TO.P,U3,58,GND*%
%TO.N,/GND*%
X135517000Y-105462000D03*
%TO.P,U3,59,I/O*%
%TO.N,/A13*%
X136517000Y-105462000D03*
%TO.P,U3,60,I/O*%
%TO.N,/A14*%
X137517000Y-105462000D03*
%TO.P,U3,61,I/O*%
%TO.N,/A15*%
X138517000Y-105462000D03*
%TO.P,U3,62,I/O*%
%TO.N,/A16*%
X139517000Y-105462000D03*
%TO.P,U3,63,I/O*%
%TO.N,/A17*%
X140517000Y-105462000D03*
%TO.P,U3,64,I/O*%
%TO.N,/A18*%
X141517000Y-105462000D03*
%TD*%
D17*
%TO.P,R10,1*%
%TO.N,/E*%
X183911000Y-82027000D03*
%TO.P,R10,2*%
%TO.N,/Q6*%
X185697000Y-82028000D03*
%TD*%
D18*
%TO.P,Hole2,1*%
%TO.N,N/C*%
X104697000Y-120032300D03*
%TD*%
D19*
%TO.P,U5,1,DSA*%
%TO.N,/74HC164_DSA_DSB*%
X196201000Y-84882000D03*
%TO.P,U5,2,DSB*%
X196200000Y-83615000D03*
%TO.P,U5,3,Q0*%
%TO.N,/Q0*%
X196206000Y-82301000D03*
%TO.P,U5,4,Q1*%
%TO.N,/Q1*%
X196199000Y-81075000D03*
%TO.P,U5,5,Q2*%
%TO.N,/Q2*%
X196199000Y-79764000D03*
%TO.P,U5,6,Q3*%
%TO.N,/Q3*%
X196200000Y-78492000D03*
%TO.P,U5,7,GND*%
%TO.N,/GND*%
X196198000Y-77182000D03*
%TO.P,U5,8,CP*%
%TO.N,/74HC164_CP*%
X190485000Y-77180000D03*
%TO.P,U5,9,~{MR}*%
%TO.N,/VCC*%
X190485000Y-78491000D03*
%TO.P,U5,10,Q4*%
%TO.N,/Q4*%
X190487000Y-79761000D03*
%TO.P,U5,11,Q5*%
%TO.N,/Q5*%
X190483000Y-81073000D03*
%TO.P,U5,12,Q6*%
%TO.N,/Q6*%
X190484000Y-82299000D03*
%TO.P,U5,13,Q7*%
%TO.N,/Q7*%
X190485000Y-83607000D03*
%TO.P,U5,14,VCC*%
%TO.N,/VCC*%
X190485000Y-84879000D03*
%TD*%
D17*
%TO.P,R8,1*%
%TO.N,/B*%
X183911000Y-78217000D03*
%TO.P,R8,2*%
%TO.N,/Q2*%
X185697000Y-78218000D03*
%TD*%
%TO.P,R11,1*%
%TO.N,/D*%
X183911000Y-83970000D03*
%TO.P,R11,2*%
%TO.N,/Q7*%
X185697000Y-83971000D03*
%TD*%
D20*
%TO.P,SW1,1,1*%
%TO.N,/GND*%
X193071500Y-94269500D03*
X193111500Y-87919500D03*
%TO.P,SW1,2,2*%
%TO.N,/Button*%
X197557500Y-94272500D03*
X197596500Y-87920500D03*
%TD*%
D17*
%TO.P,R5,1*%
%TO.N,/A*%
X183911000Y-72503000D03*
%TO.P,R5,2*%
%TO.N,/Q3*%
X185697000Y-72504000D03*
%TD*%
D21*
%TO.P,U6,1,CA*%
%TO.N,/VCC*%
X168401500Y-73791500D03*
D22*
%TO.P,U6,2,F*%
%TO.N,/F*%
X168401500Y-76331500D03*
%TO.P,U6,3,G*%
%TO.N,/G*%
X168401500Y-78871500D03*
%TO.P,U6,4,E*%
%TO.N,/E*%
X168401500Y-81411500D03*
%TO.P,U6,5,D*%
%TO.N,/D*%
X168401500Y-83951500D03*
%TO.P,U6,6,CA*%
%TO.N,/VCC*%
X173481500Y-83951500D03*
%TO.P,U6,7,DP*%
%TO.N,/DP*%
X173481500Y-81411500D03*
%TO.P,U6,8,C*%
%TO.N,/C*%
X173481500Y-78871500D03*
%TO.P,U6,9,B*%
%TO.N,/B*%
X173481500Y-76331500D03*
%TO.P,U6,10,A*%
%TO.N,/A*%
X173481500Y-73791500D03*
%TD*%
D18*
%TO.P,Hole4,1*%
%TO.N,N/C*%
X194154000Y-120077300D03*
%TD*%
D23*
%TO.P,U1,1,A18*%
%TO.N,/A18*%
X108780500Y-82037000D03*
%TO.P,U1,2,A16*%
%TO.N,/A16*%
X107511500Y-82038000D03*
%TO.P,U1,3,A15*%
%TO.N,/A15*%
X106201500Y-82039000D03*
%TO.P,U1,4,A12*%
%TO.N,/A12*%
X104931500Y-82039000D03*
D24*
%TO.P,U1,5,A7*%
%TO.N,/A7*%
X103068500Y-83944000D03*
%TO.P,U1,6,A6*%
%TO.N,/A6*%
X103065500Y-85174000D03*
%TO.P,U1,7,A5*%
%TO.N,/A5*%
X103067500Y-86481000D03*
%TO.P,U1,8,A4*%
%TO.N,/A4*%
X103066500Y-87752000D03*
%TO.P,U1,9,A3*%
%TO.N,/A3*%
X103064500Y-88984000D03*
%TO.P,U1,10,A2*%
%TO.N,/A2*%
X103067500Y-90295000D03*
%TO.P,U1,11,A1*%
%TO.N,/A1*%
X103066500Y-91563000D03*
%TO.P,U1,12,A0*%
%TO.N,/A0*%
X103066500Y-92834000D03*
%TO.P,U1,13,Ad8*%
%TO.N,/AD8*%
X103066500Y-94102000D03*
D23*
%TO.P,U1,14,Ad9*%
%TO.N,/AD9*%
X104891500Y-96008000D03*
%TO.P,U1,15,Ad10*%
%TO.N,/AD10*%
X106161500Y-96007000D03*
%TO.P,U1,16,GND*%
%TO.N,/GND*%
X107471500Y-96009000D03*
%TO.P,U1,17,Ad11*%
%TO.N,/AD11*%
X108742500Y-96011000D03*
%TO.P,U1,18,Ad12*%
%TO.N,/AD12*%
X110053500Y-96008000D03*
%TO.P,U1,19,Ad13*%
%TO.N,/AD13*%
X111319500Y-96011000D03*
%TO.P,U1,20,Ad14*%
%TO.N,/AD14*%
X112550500Y-96009000D03*
D24*
%TO.P,U1,21,Ad15*%
%TO.N,/AD15*%
X114496500Y-94103000D03*
%TO.P,U1,22,CE#*%
%TO.N,/Chip_Enable*%
X114496500Y-92831000D03*
%TO.P,U1,23,A10*%
%TO.N,/A10*%
X114497500Y-91563000D03*
%TO.P,U1,24,OE#*%
%TO.N,/Output_Enable*%
X114496500Y-90292000D03*
%TO.P,U1,25,A11*%
%TO.N,/A11*%
X114495500Y-88985000D03*
%TO.P,U1,26,A9*%
%TO.N,/A9*%
X114496500Y-87753000D03*
%TO.P,U1,27,A8*%
%TO.N,/A8*%
X114493500Y-86484000D03*
%TO.P,U1,28,A13*%
%TO.N,/A13*%
X114496500Y-85172000D03*
%TO.P,U1,29,A14*%
%TO.N,/A14*%
X114497500Y-83941000D03*
D23*
%TO.P,U1,30,A17*%
%TO.N,/A17*%
X112592500Y-82037000D03*
%TO.P,U1,31,WE#*%
%TO.N,/{slash}write*%
X111361500Y-82040000D03*
%TO.P,U1,32,VCC*%
%TO.N,/VCC*%
X110090500Y-82039000D03*
%TD*%
D25*
%TO.P,J2,1,Pin_1*%
%TO.N,/GND*%
X119142000Y-66088000D03*
%TO.P,J2,2,Pin_2*%
X121660000Y-66088000D03*
%TO.P,J2,3,Pin_3*%
%TO.N,/AD15*%
X124185000Y-66088000D03*
%TO.P,J2,4,Pin_4*%
%TO.N,/AD14*%
X126712000Y-66088000D03*
%TO.P,J2,5,Pin_5*%
%TO.N,/AD13*%
X129231000Y-66088000D03*
%TO.P,J2,6,Pin_6*%
%TO.N,/GND*%
X131750000Y-66088000D03*
%TO.P,J2,7,Pin_7*%
%TO.N,/AD12*%
X134273000Y-66088000D03*
%TO.P,J2,8,Pin_8*%
%TO.N,/{slash}write*%
X136792000Y-66088000D03*
%TO.P,J2,9,Pin_9*%
%TO.N,/VCC*%
X139311000Y-66088000D03*
%TO.P,J2,10,Pin_10*%
%TO.N,/{slash}read_top*%
X141839000Y-66088000D03*
%TO.P,J2,11,Pin_11*%
%TO.N,/AD11*%
X144364000Y-66088000D03*
%TO.P,J2,12,Pin_12*%
%TO.N,/AD10*%
X146885000Y-66088000D03*
%TO.P,J2,13,Pin_13*%
%TO.N,/12V_Front*%
X149409000Y-66088000D03*
%TO.P,J2,14,Pin_14*%
%TO.N,/UNUSED_Front*%
X151929000Y-66088000D03*
%TO.P,J2,15,Pin_15*%
%TO.N,/AD9*%
X154449000Y-66088000D03*
%TO.P,J2,16,Pin_16*%
%TO.N,/AD8*%
X156968000Y-66088000D03*
%TO.P,J2,17,Pin_17*%
%TO.N,/VCC*%
X159486000Y-66088000D03*
%TO.P,J2,18,Pin_18*%
%TO.N,/CIC_DATA1*%
X162010000Y-66088000D03*
%TO.P,J2,19,Pin_19*%
%TO.N,/1.6MHZ*%
X164536000Y-66088000D03*
%TO.P,J2,20,Pin_20*%
%TO.N,/{slash}COLD_RESET*%
X167054000Y-66088000D03*
%TO.P,J2,21,Pin_21*%
%TO.N,/S_DAT*%
X169574000Y-66088000D03*
%TO.P,J2,22,Pin_22*%
%TO.N,/GND*%
X172093000Y-66088000D03*
%TO.P,J2,23,Pin_23*%
X174623000Y-66088000D03*
%TO.P,J2,24,Pin_24*%
%TO.N,/LAUDIO*%
X177149000Y-66088000D03*
%TO.P,J2,25,Pin_25*%
%TO.N,/GND*%
X179668000Y-66088000D03*
%TD*%
D23*
%TO.P,U2,1,A18*%
%TO.N,/A18*%
X108780500Y-100455000D03*
%TO.P,U2,2,A16*%
%TO.N,/A16*%
X107511500Y-100456000D03*
%TO.P,U2,3,A15*%
%TO.N,/A15*%
X106201500Y-100457000D03*
%TO.P,U2,4,A12*%
%TO.N,/A12*%
X104931500Y-100457000D03*
D24*
%TO.P,U2,5,A7*%
%TO.N,/A7*%
X103068500Y-102362000D03*
%TO.P,U2,6,A6*%
%TO.N,/A6*%
X103065500Y-103592000D03*
%TO.P,U2,7,A5*%
%TO.N,/A5*%
X103067500Y-104899000D03*
%TO.P,U2,8,A4*%
%TO.N,/A4*%
X103066500Y-106170000D03*
%TO.P,U2,9,A3*%
%TO.N,/A3*%
X103064500Y-107402000D03*
%TO.P,U2,10,A2*%
%TO.N,/A2*%
X103067500Y-108713000D03*
%TO.P,U2,11,A1*%
%TO.N,/A1*%
X103066500Y-109981000D03*
%TO.P,U2,12,A0*%
%TO.N,/A0*%
X103066500Y-111252000D03*
%TO.P,U2,13,Ad0*%
%TO.N,/AD0*%
X103066500Y-112520000D03*
D23*
%TO.P,U2,14,Ad1*%
%TO.N,/AD1*%
X104891500Y-114426000D03*
%TO.P,U2,15,Ad2*%
%TO.N,/AD2*%
X106161500Y-114425000D03*
%TO.P,U2,16,GND*%
%TO.N,/GND*%
X107471500Y-114427000D03*
%TO.P,U2,17,Ad3*%
%TO.N,/AD3*%
X108742500Y-114429000D03*
%TO.P,U2,18,Ad4*%
%TO.N,/AD4*%
X110053500Y-114426000D03*
%TO.P,U2,19,Ad5*%
%TO.N,/AD5*%
X111319500Y-114429000D03*
%TO.P,U2,20,Ad6*%
%TO.N,/AD6*%
X112550500Y-114427000D03*
D24*
%TO.P,U2,21,Ad7*%
%TO.N,/AD7*%
X114496500Y-112521000D03*
%TO.P,U2,22,CE#*%
%TO.N,/Chip_Enable*%
X114496500Y-111249000D03*
%TO.P,U2,23,A10*%
%TO.N,/A10*%
X114497500Y-109981000D03*
%TO.P,U2,24,OE#*%
%TO.N,/Output_Enable*%
X114496500Y-108710000D03*
%TO.P,U2,25,A11*%
%TO.N,/A11*%
X114495500Y-107403000D03*
%TO.P,U2,26,A9*%
%TO.N,/A9*%
X114496500Y-106171000D03*
%TO.P,U2,27,A8*%
%TO.N,/A8*%
X114493500Y-104902000D03*
%TO.P,U2,28,A13*%
%TO.N,/A13*%
X114496500Y-103590000D03*
%TO.P,U2,29,A14*%
%TO.N,/A14*%
X114497500Y-102359000D03*
D23*
%TO.P,U2,30,A17*%
%TO.N,/A17*%
X112592500Y-100455000D03*
%TO.P,U2,31,WE#*%
%TO.N,/{slash}write*%
X111361500Y-100458000D03*
%TO.P,U2,32,VCC*%
%TO.N,/VCC*%
X110090500Y-100457000D03*
%TD*%
D26*
%TO.P,C3,1*%
%TO.N,/VCC*%
X192261400Y-73749100D03*
%TO.P,C3,2*%
%TO.N,/GND*%
X195479400Y-73749100D03*
%TD*%
D17*
%TO.P,R7,1*%
%TO.N,/F*%
X183911000Y-76309000D03*
%TO.P,R7,2*%
%TO.N,/Q4*%
X185697000Y-76310000D03*
%TD*%
D26*
%TO.P,C2,1*%
%TO.N,/VCC*%
X109280400Y-120206600D03*
%TO.P,C2,2*%
%TO.N,/GND*%
X112498400Y-120206600D03*
%TD*%
D14*
%TO.P,R3,1*%
%TO.N,/SC_N{slash}C*%
X177386000Y-95300400D03*
%TO.P,R3,2*%
%TO.N,/VCC*%
X180613000Y-95307400D03*
%TD*%
D26*
%TO.P,C1,1*%
%TO.N,/VCC*%
X107475400Y-76925600D03*
%TO.P,C1,2*%
%TO.N,/GND*%
X110693400Y-76925600D03*
%TD*%
D17*
%TO.P,R9,1*%
%TO.N,/G*%
X183911000Y-80120000D03*
%TO.P,R9,2*%
%TO.N,/Q5*%
X185697000Y-80121000D03*
%TD*%
%TO.P,R6,1*%
%TO.N,/C*%
X183911000Y-74408000D03*
%TO.P,R6,2*%
%TO.N,/Q1*%
X185697000Y-74409000D03*
%TD*%
D14*
%TO.P,R1,1*%
%TO.N,/SC_VPP*%
X177386000Y-90288400D03*
%TO.P,R1,2*%
%TO.N,/VCC*%
X180613000Y-90295400D03*
%TD*%
%TO.P,R2,1*%
%TO.N,/CD2*%
X177386000Y-92850400D03*
%TO.P,R2,2*%
%TO.N,/VCC*%
X180613000Y-92857400D03*
%TD*%
D18*
%TO.P,Hole3,1*%
%TO.N,N/C*%
X190979000Y-66259300D03*
%TD*%
D27*
%TO.P,J4,1,Pin_1*%
%TO.N,/GND*%
X119142000Y-129159000D03*
%TO.P,J4,2,Pin_2*%
X121660000Y-129159000D03*
%TO.P,J4,3,Pin_3*%
%TO.N,/AD15*%
X124185000Y-129159000D03*
%TO.P,J4,4,Pin_4*%
%TO.N,/AD14*%
X126712000Y-129159000D03*
%TO.P,J4,5,Pin_5*%
%TO.N,/AD13*%
X129231000Y-129159000D03*
%TO.P,J4,6,Pin_6*%
%TO.N,/GND*%
X131750000Y-129159000D03*
%TO.P,J4,7,Pin_7*%
%TO.N,/AD12*%
X134273000Y-129159000D03*
%TO.P,J4,8,Pin_8*%
%TO.N,/{slash}write*%
X136792000Y-129159000D03*
%TO.P,J4,9,Pin_9*%
%TO.N,/VCC*%
X139311000Y-129159000D03*
%TO.P,J4,10,Pin_10*%
%TO.N,/{slash}read_bottom*%
X141839000Y-129159000D03*
%TO.P,J4,11,Pin_11*%
%TO.N,/AD11*%
X144364000Y-129159000D03*
%TO.P,J4,12,Pin_12*%
%TO.N,/AD10*%
X146885000Y-129159000D03*
%TO.P,J4,13,Pin_13*%
%TO.N,/12V_Front*%
X149409000Y-129159000D03*
%TO.P,J4,14,Pin_14*%
%TO.N,/UNUSED_Front*%
X151929000Y-129159000D03*
%TO.P,J4,15,Pin_15*%
%TO.N,/AD9*%
X154449000Y-129159000D03*
%TO.P,J4,16,Pin_16*%
%TO.N,/AD8*%
X156968000Y-129159000D03*
%TO.P,J4,17,Pin_17*%
%TO.N,/VCC*%
X159486000Y-129159000D03*
%TO.P,J4,18,Pin_18*%
%TO.N,/CIC_DATA1*%
X162010000Y-129159000D03*
%TO.P,J4,19,Pin_19*%
%TO.N,/1.6MHZ*%
X164536000Y-129159000D03*
%TO.P,J4,20,Pin_20*%
%TO.N,/{slash}COLD_RESET*%
X167054000Y-129159000D03*
%TO.P,J4,21,Pin_21*%
%TO.N,/S_DAT*%
X169574000Y-129159000D03*
%TO.P,J4,22,Pin_22*%
%TO.N,/GND*%
X172093000Y-129159000D03*
%TO.P,J4,23,Pin_23*%
X174623000Y-129159000D03*
%TO.P,J4,24,Pin_24*%
%TO.N,/LAUDIO*%
X177149000Y-129159000D03*
%TO.P,J4,25,Pin_25*%
%TO.N,/GND*%
X179668000Y-129159000D03*
%TD*%
D18*
%TO.P,Hole1,1*%
%TO.N,N/C*%
X108548000Y-66220300D03*
%TD*%
D17*
%TO.P,R12,1*%
%TO.N,/DP*%
X183911000Y-85841000D03*
%TO.P,R12,2*%
%TO.N,/Q0*%
X185697000Y-85842000D03*
%TD*%
D28*
%TO.N,/Q3*%
X193551100Y-78881400D03*
X187179700Y-72867900D03*
%TO.N,/Q2*%
X189098100Y-89940000D03*
X186952700Y-78218000D03*
%TO.N,/Q1*%
X193984100Y-81435500D03*
X186957600Y-74409000D03*
%TO.N,/LAUDIO*%
X176506500Y-124035800D03*
X176415600Y-69832300D03*
%TO.N,/S_DAT*%
X169349700Y-123089700D03*
X170342500Y-69833000D03*
%TO.N,/1.6MHZ*%
X165491100Y-123987100D03*
X164536000Y-70564800D03*
%TO.N,/CIC_DATA1*%
X162873600Y-124033900D03*
X162364500Y-69815100D03*
%TO.N,/UNUSED_Front*%
X152278200Y-123042300D03*
X152333600Y-70354600D03*
%TO.N,/12V_Front*%
X150731500Y-123470600D03*
X150889900Y-70734300D03*
%TO.N,/C*%
X175514700Y-74408000D03*
%TO.N,/D*%
X175286100Y-81036700D03*
%TO.N,/{slash}read_top*%
X140619900Y-69609300D03*
X140144200Y-100856300D03*
%TO.N,/74HC164_CP*%
X133310300Y-71760500D03*
X130684100Y-87645600D03*
%TO.N,/74HC164_DSA_DSB*%
X128358800Y-75524000D03*
X128326100Y-85268200D03*
%TO.N,/SC_I{slash}O*%
X142778900Y-87501600D03*
%TO.N,/SC_N{slash}C2*%
X137197200Y-73191500D03*
X137264700Y-84547800D03*
%TO.N,/SC_N{slash}C*%
X150419100Y-86448500D03*
%TO.N,/SC_CLK*%
X131817900Y-83266900D03*
X133642000Y-114065500D03*
%TO.N,/SC_RST*%
X141036100Y-94145900D03*
%TO.N,/CD2*%
X153116300Y-85417700D03*
%TO.N,/SC_VPP*%
X138255700Y-79730500D03*
X138271800Y-73845800D03*
X145920500Y-81733000D03*
%TO.N,/ALE_H*%
X141748500Y-85151100D03*
%TO.N,/ALE_L*%
X138576400Y-86678100D03*
%TO.N,/{slash}COLD_RESET*%
X167139200Y-89082600D03*
X168156500Y-70273600D03*
%TO.N,/AD7*%
X137119000Y-110728300D03*
X139367500Y-90462000D03*
X157113000Y-90926900D03*
%TO.N,/AD6*%
X135206000Y-112282300D03*
X137826400Y-89557800D03*
X155466900Y-90461000D03*
%TO.N,/AD5*%
X147422900Y-88462000D03*
X147393800Y-116374800D03*
%TO.N,/AD4*%
X146286800Y-87800000D03*
X142559000Y-117084800D03*
%TO.N,/AD3*%
X134841500Y-85601300D03*
X131297400Y-116509300D03*
%TO.N,/AD2*%
X130086300Y-77214600D03*
X128913800Y-117576300D03*
%TO.N,/AD1*%
X131086500Y-77431000D03*
X124541700Y-117937900D03*
%TO.N,/AD0*%
X112751800Y-112520000D03*
X125058000Y-77639100D03*
%TO.N,/VCC*%
X107041600Y-104302400D03*
X106921000Y-86673100D03*
X109117900Y-118783100D03*
X138854700Y-70336100D03*
X136447100Y-79048000D03*
X159281300Y-124006400D03*
X159813400Y-70585500D03*
X139311000Y-124031300D03*
%TO.N,/{slash}write*%
X110954700Y-102206000D03*
X112043300Y-84556600D03*
X135926000Y-90185800D03*
X136056200Y-69927800D03*
%TO.N,/A17*%
X118120100Y-99685000D03*
X116973400Y-83198100D03*
%TO.N,/A14*%
X115298700Y-101376500D03*
X116237500Y-83941000D03*
%TO.N,/A13*%
X116302600Y-102174300D03*
X116253300Y-85172000D03*
%TO.N,/A8*%
X112748900Y-86382600D03*
X112738200Y-104902000D03*
%TO.N,/A9*%
X116369800Y-105896000D03*
X116689800Y-87753000D03*
%TO.N,/A11*%
X116861200Y-108025200D03*
X121855500Y-88985000D03*
%TO.N,/Output_Enable*%
X116775900Y-109578400D03*
X122689800Y-92392900D03*
%TO.N,/A10*%
X112755800Y-109310700D03*
X118111300Y-108185500D03*
X112571600Y-92065000D03*
%TO.N,/Chip_Enable*%
X117922700Y-109773600D03*
X124055400Y-94889000D03*
%TO.N,/AD15*%
X123524000Y-93858800D03*
X123814900Y-69859300D03*
X124898400Y-115643400D03*
%TO.N,/AD14*%
X126116500Y-71715600D03*
X126796000Y-83514400D03*
X122828800Y-83514400D03*
X117865100Y-96321400D03*
%TO.N,/AD13*%
X128577700Y-121717500D03*
X127116700Y-71772500D03*
X122456600Y-72790900D03*
X111375900Y-89633900D03*
%TO.N,/AD12*%
X132308700Y-73378900D03*
X118192400Y-78882800D03*
X110472700Y-88986700D03*
X134041000Y-69817600D03*
X133852200Y-90789500D03*
%TO.N,/AD11*%
X142782100Y-95462000D03*
X143110100Y-70088200D03*
X145953400Y-111448000D03*
X113504600Y-115158000D03*
X109256000Y-94137700D03*
%TO.N,/GND*%
X119891700Y-124005300D03*
X131111200Y-124020700D03*
X107945100Y-116282100D03*
X124224200Y-86744300D03*
X124224200Y-79764800D03*
X107771100Y-92092500D03*
X174490000Y-69827100D03*
X179875100Y-124015900D03*
X129805900Y-119317800D03*
X123166300Y-71549100D03*
X131725700Y-69860500D03*
X173823400Y-123970400D03*
X171899900Y-76460900D03*
%TO.N,/AD10*%
X148565800Y-82295500D03*
X120120500Y-77403000D03*
X109706900Y-91339200D03*
X148094500Y-94462000D03*
X147911600Y-70818900D03*
%TO.N,/AD9*%
X155104300Y-93514000D03*
X154333500Y-70974200D03*
X154879300Y-84233600D03*
X119291800Y-78578300D03*
X109111300Y-89777200D03*
%TO.N,/AD8*%
X139486100Y-91972500D03*
X137891100Y-111543500D03*
X113507500Y-113529900D03*
X112646100Y-87835700D03*
X158145000Y-69691400D03*
X158114300Y-94512000D03*
%TO.N,/A0*%
X111372900Y-87057700D03*
X114586900Y-95462000D03*
X108838100Y-110933900D03*
%TO.N,/A1*%
X124750500Y-96521000D03*
X110451700Y-109806300D03*
X104905600Y-108628600D03*
X101005500Y-98652100D03*
%TO.N,/A2*%
X112714800Y-85299600D03*
X114754600Y-97247500D03*
%TO.N,/A3*%
X112748400Y-106840400D03*
X121092500Y-98462000D03*
X105832800Y-107402000D03*
X101304800Y-88754400D03*
%TO.N,/A4*%
X102615400Y-96261900D03*
X101311900Y-87711600D03*
%TO.N,/A5*%
X105009400Y-88405600D03*
X104811100Y-105181000D03*
X111929300Y-106222300D03*
X122418800Y-99756500D03*
%TO.N,/A6*%
X102749400Y-100885800D03*
X101226400Y-85717300D03*
%TO.N,/A7*%
X103703000Y-100401900D03*
X101327600Y-83944000D03*
X110870300Y-107650000D03*
X124099300Y-102240100D03*
%TO.N,/A12*%
X105408700Y-102214700D03*
X105250100Y-80299700D03*
X110420200Y-105679500D03*
X120103400Y-110301000D03*
%TO.N,/A15*%
X105852000Y-98701100D03*
X105456100Y-83800400D03*
X129730300Y-71872500D03*
X133005600Y-102813100D03*
%TO.N,/A16*%
X105114800Y-89514700D03*
X106328900Y-103039500D03*
X130692300Y-72793400D03*
X133667400Y-102049300D03*
%TO.N,/A18*%
X109870700Y-98721800D03*
X108411100Y-83772700D03*
%TD*%
D29*
%TO.N,/Q7*%
X187041100Y-83607000D02*
X186677100Y-83971000D01*
X190485000Y-83607000D02*
X187041100Y-83607000D01*
X185697000Y-83971000D02*
X186677100Y-83971000D01*
%TO.N,/Q6*%
X186948100Y-82299000D02*
X186677100Y-82028000D01*
X190484000Y-82299000D02*
X186948100Y-82299000D01*
X185697000Y-82028000D02*
X186677100Y-82028000D01*
%TO.N,/Q5*%
X187629100Y-81073000D02*
X186677100Y-80121000D01*
X190483000Y-81073000D02*
X187629100Y-81073000D01*
X185697000Y-80121000D02*
X186677100Y-80121000D01*
%TO.N,/Q4*%
X186677100Y-76854300D02*
X186677100Y-76310000D01*
X189161900Y-79339100D02*
X186677100Y-76854300D01*
X189161900Y-79761000D02*
X189161900Y-79339100D01*
X190487000Y-79761000D02*
X189161900Y-79761000D01*
X185697000Y-76310000D02*
X186677100Y-76310000D01*
%TO.N,/Q3*%
X194485500Y-78881400D02*
X193551100Y-78881400D01*
X194874900Y-78492000D02*
X194485500Y-78881400D01*
X187041000Y-72867900D02*
X186677100Y-72504000D01*
X187179700Y-72867900D02*
X187041000Y-72867900D01*
X185697000Y-72504000D02*
X186677100Y-72504000D01*
X196200000Y-78492000D02*
X194874900Y-78492000D01*
%TO.N,/Q2*%
X186952700Y-78218000D02*
X185697000Y-78218000D01*
X196199000Y-79764000D02*
X197524100Y-79764000D01*
X194481100Y-89940000D02*
X189098100Y-89940000D01*
X196446900Y-87974200D02*
X194481100Y-89940000D01*
X196446900Y-86624900D02*
X196446900Y-87974200D01*
X198022900Y-85048900D02*
X196446900Y-86624900D01*
X198022900Y-80262800D02*
X198022900Y-85048900D01*
X197524100Y-79764000D02*
X198022900Y-80262800D01*
%TO.N,/Q1*%
X185697000Y-74409000D02*
X186677100Y-74409000D01*
X186677100Y-74409000D02*
X186957600Y-74409000D01*
X196199000Y-81075000D02*
X194873900Y-81075000D01*
X194513400Y-81435500D02*
X193984100Y-81435500D01*
X194873900Y-81075000D02*
X194513400Y-81435500D01*
%TO.N,/Q0*%
X196206000Y-82301000D02*
X194880900Y-82301000D01*
X185697000Y-85842000D02*
X186677100Y-85842000D01*
X189874800Y-89039700D02*
X186677100Y-85842000D01*
X194049600Y-89039700D02*
X189874800Y-89039700D01*
X194490900Y-88598400D02*
X194049600Y-89039700D01*
X194490900Y-82691000D02*
X194490900Y-88598400D01*
X194880900Y-82301000D02*
X194490900Y-82691000D01*
%TO.N,/LAUDIO*%
X177149000Y-66088000D02*
X177149000Y-69538100D01*
X176804600Y-124333900D02*
X176506500Y-124035800D01*
X177149000Y-124333900D02*
X176804600Y-124333900D01*
X177149000Y-129159000D02*
X177149000Y-124333900D01*
X176854800Y-69832300D02*
X176415600Y-69832300D01*
X177149000Y-69538100D02*
X176854800Y-69832300D01*
%TO.N,/S_DAT*%
X169349700Y-124109600D02*
X169349700Y-123089700D01*
X169574000Y-124333900D02*
X169349700Y-124109600D01*
X169574000Y-66088000D02*
X169574000Y-69538100D01*
X169574000Y-129159000D02*
X169574000Y-124333900D01*
X170047600Y-69538100D02*
X170342500Y-69833000D01*
X169574000Y-69538100D02*
X170047600Y-69538100D01*
%TO.N,/1.6MHZ*%
X165144300Y-124333900D02*
X165491100Y-123987100D01*
X164536000Y-124333900D02*
X165144300Y-124333900D01*
X164536000Y-129159000D02*
X164536000Y-124333900D01*
X164536000Y-70564800D02*
X164536000Y-66088000D01*
%TO.N,/CIC_DATA1*%
X162010000Y-66088000D02*
X162010000Y-69538100D01*
X162087500Y-69538100D02*
X162010000Y-69538100D01*
X162364500Y-69815100D02*
X162087500Y-69538100D01*
X162010000Y-129159000D02*
X162010000Y-124333900D01*
X162573600Y-124333900D02*
X162873600Y-124033900D01*
X162010000Y-124333900D02*
X162573600Y-124333900D01*
%TO.N,/UNUSED_Front*%
X152278200Y-123984700D02*
X152278200Y-123042300D01*
X151929000Y-124333900D02*
X152278200Y-123984700D01*
X152333600Y-69942700D02*
X151929000Y-69538100D01*
X152333600Y-70354600D02*
X152333600Y-69942700D01*
X151929000Y-66088000D02*
X151929000Y-69538100D01*
X151929000Y-129159000D02*
X151929000Y-124333900D01*
D30*
%TO.N,/12V_Front*%
X149993200Y-124208900D02*
X150731500Y-123470600D01*
X149409000Y-124208900D02*
X149993200Y-124208900D01*
X149818700Y-69663100D02*
X149409000Y-69663100D01*
X150889900Y-70734300D02*
X149818700Y-69663100D01*
X149409000Y-66088000D02*
X149409000Y-69663100D01*
X149409000Y-129159000D02*
X149409000Y-124208900D01*
D29*
%TO.N,/A*%
X183911000Y-72503000D02*
X182930900Y-72503000D01*
X178859000Y-72503000D02*
X182930900Y-72503000D01*
X178729100Y-72632900D02*
X178859000Y-72503000D01*
X174640100Y-72632900D02*
X178729100Y-72632900D01*
X173481500Y-73791500D02*
X174640100Y-72632900D01*
%TO.N,/B*%
X181045400Y-76331500D02*
X182930900Y-78217000D01*
X173481500Y-76331500D02*
X181045400Y-76331500D01*
X183911000Y-78217000D02*
X182930900Y-78217000D01*
%TO.N,/C*%
X183911000Y-74408000D02*
X175514700Y-74408000D01*
%TO.N,/DP*%
X183911000Y-85841000D02*
X182930900Y-85841000D01*
X182930900Y-85749600D02*
X182930900Y-85841000D01*
X179042800Y-81861500D02*
X182930900Y-85749600D01*
X173931500Y-81861500D02*
X179042800Y-81861500D01*
X173481500Y-81411500D02*
X173931500Y-81861500D01*
%TO.N,/D*%
X179997600Y-81036700D02*
X182930900Y-83970000D01*
X175286100Y-81036700D02*
X179997600Y-81036700D01*
X183911000Y-83970000D02*
X182930900Y-83970000D01*
%TO.N,/E*%
X181154600Y-80250700D02*
X182930900Y-82027000D01*
X169562300Y-80250700D02*
X181154600Y-80250700D01*
X168401500Y-81411500D02*
X169562300Y-80250700D01*
X183911000Y-82027000D02*
X182930900Y-82027000D01*
%TO.N,/G*%
X183911000Y-80120000D02*
X182930900Y-80120000D01*
X180491800Y-77680900D02*
X182930900Y-80120000D01*
X169668900Y-77680900D02*
X180491800Y-77680900D01*
X168478300Y-78871500D02*
X169668900Y-77680900D01*
X168401500Y-78871500D02*
X168478300Y-78871500D01*
%TO.N,/F*%
X181810700Y-75188800D02*
X182930900Y-76309000D01*
X171222600Y-75188800D02*
X181810700Y-75188800D01*
X170079900Y-76331500D02*
X171222600Y-75188800D01*
X168401500Y-76331500D02*
X170079900Y-76331500D01*
X183911000Y-76309000D02*
X182930900Y-76309000D01*
%TO.N,/{slash}read_top*%
X141839000Y-66088000D02*
X141839000Y-69538100D01*
X130749900Y-91462000D02*
X140144200Y-100856300D01*
X126517000Y-91462000D02*
X130749900Y-91462000D01*
X140691100Y-69538100D02*
X140619900Y-69609300D01*
X141839000Y-69538100D02*
X140691100Y-69538100D01*
%TO.N,/74HC164_CP*%
X190485000Y-77180000D02*
X189159900Y-77180000D01*
X129500500Y-86462000D02*
X130684100Y-87645600D01*
X126517000Y-86462000D02*
X129500500Y-86462000D01*
X189159900Y-73793600D02*
X189159900Y-77180000D01*
X186849100Y-71482800D02*
X189159900Y-73793600D01*
X179242600Y-71482800D02*
X186849100Y-71482800D01*
X178542600Y-72182800D02*
X179242600Y-71482800D01*
X173085500Y-72182800D02*
X178542600Y-72182800D01*
X170351600Y-74916700D02*
X173085500Y-72182800D01*
X152176700Y-74916700D02*
X170351600Y-74916700D01*
X149504100Y-72244100D02*
X152176700Y-74916700D01*
X133793900Y-72244100D02*
X149504100Y-72244100D01*
X133310300Y-71760500D02*
X133793900Y-72244100D01*
%TO.N,/74HC164_DSA_DSB*%
X197526100Y-83616000D02*
X197526100Y-84882000D01*
X197525100Y-83615000D02*
X197526100Y-83616000D01*
X196200000Y-83615000D02*
X197525100Y-83615000D01*
X196201000Y-84882000D02*
X196863600Y-84882000D01*
X196863600Y-84882000D02*
X197526100Y-84882000D01*
X128555500Y-75327300D02*
X128358800Y-75524000D01*
X140044700Y-75327300D02*
X128555500Y-75327300D01*
X142286900Y-77569500D02*
X140044700Y-75327300D01*
X146042700Y-77569500D02*
X142286900Y-77569500D01*
X151276100Y-82802900D02*
X146042700Y-77569500D01*
X174081100Y-82802900D02*
X151276100Y-82802900D01*
X178207100Y-86928900D02*
X174081100Y-82802900D01*
X187119900Y-86928900D02*
X178207100Y-86928900D01*
X189680800Y-89489800D02*
X187119900Y-86928900D01*
X194236200Y-89489800D02*
X189680800Y-89489800D01*
X195628200Y-88097800D02*
X194236200Y-89489800D01*
X195628200Y-86117400D02*
X195628200Y-88097800D01*
X196863600Y-84882000D02*
X195628200Y-86117400D01*
X128160900Y-85268200D02*
X127967100Y-85462000D01*
X128326100Y-85268200D02*
X128160900Y-85268200D01*
X126517000Y-85462000D02*
X127967100Y-85462000D01*
%TO.N,/SC_I{slash}O*%
X129517000Y-83368500D02*
X129517000Y-81462000D01*
X133650100Y-87501600D02*
X129517000Y-83368500D01*
X142778900Y-87501600D02*
X133650100Y-87501600D01*
%TO.N,/SC_N{slash}C2*%
X150339000Y-75656000D02*
X149163900Y-75656000D01*
X131403900Y-84547800D02*
X137264700Y-84547800D01*
X130517000Y-83660900D02*
X131403900Y-84547800D01*
X130517000Y-81462000D02*
X130517000Y-83660900D01*
X137268000Y-73120700D02*
X137197200Y-73191500D01*
X147436500Y-73120700D02*
X137268000Y-73120700D01*
X149163900Y-74848100D02*
X147436500Y-73120700D01*
X149163900Y-75656000D02*
X149163900Y-74848100D01*
%TO.N,/SC_N{slash}C*%
X149146800Y-86448500D02*
X150419100Y-86448500D01*
X146510600Y-83812300D02*
X149146800Y-86448500D01*
X132771900Y-83812300D02*
X146510600Y-83812300D01*
X132592200Y-83992000D02*
X132771900Y-83812300D01*
X131487700Y-83992000D02*
X132592200Y-83992000D01*
X131084400Y-83588700D02*
X131487700Y-83992000D01*
X131084400Y-82920500D02*
X131084400Y-83588700D01*
X131517000Y-82487900D02*
X131084400Y-82920500D01*
X131517000Y-81462000D02*
X131517000Y-82487900D01*
X175120200Y-95300400D02*
X177386000Y-95300400D01*
X166893000Y-87073200D02*
X175120200Y-95300400D01*
X151043800Y-87073200D02*
X166893000Y-87073200D01*
X150419100Y-86448500D02*
X151043800Y-87073200D01*
%TO.N,/SC_CLK*%
X147842000Y-113756000D02*
X146666900Y-113756000D01*
X132517000Y-81462000D02*
X132517000Y-82912100D01*
X132162200Y-83266900D02*
X131817900Y-83266900D01*
X132517000Y-82912100D02*
X132162200Y-83266900D01*
X146666900Y-114637400D02*
X146666900Y-113756000D01*
X145901200Y-115403100D02*
X146666900Y-114637400D01*
X134979600Y-115403100D02*
X145901200Y-115403100D01*
X133642000Y-114065500D02*
X134979600Y-115403100D01*
%TO.N,/SC_RST*%
X133517000Y-81462000D02*
X133517000Y-80011900D01*
X128996900Y-80011900D02*
X133517000Y-80011900D01*
X128891700Y-80117100D02*
X128996900Y-80011900D01*
X128891700Y-83423200D02*
X128891700Y-80117100D01*
X133711700Y-88243200D02*
X128891700Y-83423200D01*
X135124500Y-88243200D02*
X133711700Y-88243200D01*
X137101200Y-90219900D02*
X135124500Y-88243200D01*
X137101200Y-90740900D02*
X137101200Y-90219900D01*
X140506200Y-94145900D02*
X137101200Y-90740900D01*
X141036100Y-94145900D02*
X140506200Y-94145900D01*
%TO.N,/CD2*%
X134517000Y-81462000D02*
X134517000Y-82912100D01*
X154321700Y-86623100D02*
X153116300Y-85417700D01*
X167079500Y-86623100D02*
X154321700Y-86623100D01*
X173306800Y-92850400D02*
X167079500Y-86623100D01*
X177386000Y-92850400D02*
X173306800Y-92850400D01*
X148752600Y-85417700D02*
X153116300Y-85417700D01*
X146697100Y-83362200D02*
X148752600Y-85417700D01*
X134967100Y-83362200D02*
X146697100Y-83362200D01*
X134517000Y-82912100D02*
X134967100Y-83362200D01*
X131472300Y-113754000D02*
X129979000Y-113754000D01*
X133627700Y-115909400D02*
X131472300Y-113754000D01*
X146481800Y-115909400D02*
X133627700Y-115909400D01*
X146763100Y-115628100D02*
X146481800Y-115909400D01*
X154535900Y-115628100D02*
X146763100Y-115628100D01*
X155326200Y-114837800D02*
X154535900Y-115628100D01*
X155326200Y-112796400D02*
X155326200Y-114837800D01*
X154957900Y-112428100D02*
X155326200Y-112796400D01*
X154150000Y-112428100D02*
X154957900Y-112428100D01*
X154150000Y-111253000D02*
X154150000Y-112428100D01*
%TO.N,/SC_VPP*%
X145259000Y-75656000D02*
X144083900Y-75656000D01*
X137517000Y-81462000D02*
X137517000Y-80011900D01*
X137974300Y-80011900D02*
X138255700Y-79730500D01*
X137517000Y-80011900D02*
X137974300Y-80011900D01*
X146977700Y-81733000D02*
X145920500Y-81733000D01*
X148753200Y-83508500D02*
X146977700Y-81733000D01*
X155179700Y-83508500D02*
X148753200Y-83508500D01*
X157394100Y-85722900D02*
X155179700Y-83508500D01*
X173960600Y-85722900D02*
X157394100Y-85722900D01*
X177386000Y-89148300D02*
X173960600Y-85722900D01*
X143081600Y-73845800D02*
X138271800Y-73845800D01*
X144083900Y-74848100D02*
X143081600Y-73845800D01*
X144083900Y-75656000D02*
X144083900Y-74848100D01*
X177386000Y-90288400D02*
X177386000Y-89148300D01*
%TO.N,/Button*%
X177386000Y-97922400D02*
X177386000Y-98492400D01*
X138517000Y-81462000D02*
X138517000Y-82912100D01*
X178050600Y-97827800D02*
X177386000Y-98492400D01*
X178341000Y-97827800D02*
X178050600Y-97827800D01*
X179623300Y-99110100D02*
X178341000Y-97827800D01*
X191599800Y-99110100D02*
X179623300Y-99110100D01*
X196437400Y-94272500D02*
X191599800Y-99110100D01*
X197557500Y-94272500D02*
X196437400Y-94272500D01*
X178578100Y-97590700D02*
X178341000Y-97827800D01*
X178578100Y-91850600D02*
X178578100Y-97590700D01*
X178437700Y-91710200D02*
X178578100Y-91850600D01*
X172803200Y-91710200D02*
X178437700Y-91710200D01*
X167266000Y-86173000D02*
X172803200Y-91710200D01*
X155793300Y-86173000D02*
X167266000Y-86173000D01*
X154304000Y-84683700D02*
X155793300Y-86173000D01*
X148655200Y-84683700D02*
X154304000Y-84683700D01*
X146883600Y-82912100D02*
X148655200Y-84683700D01*
X138517000Y-82912100D02*
X146883600Y-82912100D01*
%TO.N,/ALE_H*%
X144517000Y-85462000D02*
X143066900Y-85462000D01*
X142059400Y-85462000D02*
X141748500Y-85151100D01*
X143066900Y-85462000D02*
X142059400Y-85462000D01*
%TO.N,/ALE_L*%
X142850800Y-86678100D02*
X143066900Y-86462000D01*
X138576400Y-86678100D02*
X142850800Y-86678100D01*
X144517000Y-86462000D02*
X143066900Y-86462000D01*
%TO.N,/{slash}COLD_RESET*%
X144517000Y-91462000D02*
X145967100Y-91462000D01*
X167054000Y-129159000D02*
X167054000Y-124333900D01*
X164523300Y-91698500D02*
X167139200Y-89082600D01*
X146203600Y-91698500D02*
X164523300Y-91698500D01*
X145967100Y-91462000D02*
X146203600Y-91698500D01*
X167054000Y-94229200D02*
X167054000Y-124333900D01*
X164523300Y-91698500D02*
X167054000Y-94229200D01*
X167421000Y-69538100D02*
X167054000Y-69538100D01*
X168156500Y-70273600D02*
X167421000Y-69538100D01*
X167054000Y-66088000D02*
X167054000Y-69538100D01*
%TO.N,/{slash}read_bottom*%
X141839000Y-129159000D02*
X141839000Y-124333900D01*
X144517000Y-96462000D02*
X145967100Y-96462000D01*
X157773500Y-108268400D02*
X145967100Y-96462000D01*
X157773500Y-109169600D02*
X157773500Y-108268400D01*
X158110700Y-109506800D02*
X157773500Y-109169600D01*
X158110700Y-116089400D02*
X158110700Y-109506800D01*
X154434300Y-119765800D02*
X158110700Y-116089400D01*
X146407100Y-119765800D02*
X154434300Y-119765800D01*
X141839000Y-124333900D02*
X146407100Y-119765800D01*
%TO.N,/AD7*%
X114496500Y-112521000D02*
X115956600Y-112521000D01*
X144517000Y-90462000D02*
X145967100Y-90462000D01*
X146691400Y-91186300D02*
X145967100Y-90462000D01*
X156853600Y-91186300D02*
X146691400Y-91186300D01*
X157113000Y-90926900D02*
X156853600Y-91186300D01*
X144517000Y-90462000D02*
X139367500Y-90462000D01*
X136821200Y-111026100D02*
X137119000Y-110728300D01*
X117451500Y-111026100D02*
X136821200Y-111026100D01*
X115956600Y-112521000D02*
X117451500Y-111026100D01*
%TO.N,/AD6*%
X143792000Y-89462000D02*
X143066900Y-89462000D01*
X143792000Y-89462000D02*
X144517000Y-89462000D01*
X121960100Y-114427000D02*
X112550500Y-114427000D01*
X124301800Y-112085300D02*
X121960100Y-114427000D01*
X135009000Y-112085300D02*
X124301800Y-112085300D01*
X135206000Y-112282300D02*
X135009000Y-112085300D01*
X154467900Y-89462000D02*
X155466900Y-90461000D01*
X144517000Y-89462000D02*
X154467900Y-89462000D01*
X142971100Y-89557800D02*
X137826400Y-89557800D01*
X143066900Y-89462000D02*
X142971100Y-89557800D01*
%TO.N,/AD5*%
X147314100Y-88570800D02*
X147422900Y-88462000D01*
X144625800Y-88570800D02*
X147314100Y-88570800D01*
X144517000Y-88462000D02*
X144625800Y-88570800D01*
X111319500Y-114429000D02*
X111319500Y-115889100D01*
X147378700Y-116359700D02*
X147393800Y-116374800D01*
X133123200Y-116359700D02*
X147378700Y-116359700D01*
X131767100Y-115003600D02*
X133123200Y-116359700D01*
X128702900Y-115003600D02*
X131767100Y-115003600D01*
X127620300Y-113921000D02*
X128702900Y-115003600D01*
X123986900Y-113921000D02*
X127620300Y-113921000D01*
X122018800Y-115889100D02*
X123986900Y-113921000D01*
X111319500Y-115889100D02*
X122018800Y-115889100D01*
%TO.N,/AD4*%
X144517000Y-87462000D02*
X145967100Y-87462000D01*
X145967100Y-87480300D02*
X145967100Y-87462000D01*
X146286800Y-87800000D02*
X145967100Y-87480300D01*
X110053500Y-114426000D02*
X110053500Y-115886100D01*
X133211700Y-117084800D02*
X142559000Y-117084800D01*
X131911000Y-115784100D02*
X133211700Y-117084800D01*
X128806500Y-115784100D02*
X131911000Y-115784100D01*
X127398400Y-114376000D02*
X128806500Y-115784100D01*
X124168500Y-114376000D02*
X127398400Y-114376000D01*
X122205300Y-116339200D02*
X124168500Y-114376000D01*
X110506600Y-116339200D02*
X122205300Y-116339200D01*
X110053500Y-115886100D02*
X110506600Y-116339200D01*
%TO.N,/AD3*%
X144517000Y-84462000D02*
X143066900Y-84462000D01*
X108742500Y-114429000D02*
X108742500Y-115889100D01*
X131022300Y-116234200D02*
X131297400Y-116509300D01*
X128620000Y-116234200D02*
X131022300Y-116234200D01*
X127245500Y-114859700D02*
X128620000Y-116234200D01*
X124321400Y-114859700D02*
X127245500Y-114859700D01*
X122391800Y-116789300D02*
X124321400Y-114859700D01*
X109642700Y-116789300D02*
X122391800Y-116789300D01*
X108742500Y-115889100D02*
X109642700Y-116789300D01*
X140203400Y-85601300D02*
X134841500Y-85601300D01*
X141428100Y-84376600D02*
X140203400Y-85601300D01*
X142981500Y-84376600D02*
X141428100Y-84376600D01*
X143066900Y-84462000D02*
X142981500Y-84376600D01*
%TO.N,/AD2*%
X141517000Y-81462000D02*
X141517000Y-80011900D01*
X138207200Y-76702100D02*
X141517000Y-80011900D01*
X130598800Y-76702100D02*
X138207200Y-76702100D01*
X130086300Y-77214600D02*
X130598800Y-76702100D01*
X106161500Y-114425000D02*
X106161500Y-115885100D01*
X107580100Y-117303700D02*
X106161500Y-115885100D01*
X124150500Y-117303700D02*
X107580100Y-117303700D01*
X124241400Y-117212800D02*
X124150500Y-117303700D01*
X124842100Y-117212800D02*
X124241400Y-117212800D01*
X125205600Y-117576300D02*
X124842100Y-117212800D01*
X128913800Y-117576300D02*
X125205600Y-117576300D01*
%TO.N,/AD1*%
X140517000Y-81462000D02*
X140517000Y-80011900D01*
X137936100Y-77431000D02*
X140517000Y-80011900D01*
X131086500Y-77431000D02*
X137936100Y-77431000D01*
X106943300Y-117937900D02*
X124541700Y-117937900D01*
X104891500Y-115886100D02*
X106943300Y-117937900D01*
X104891500Y-114426000D02*
X104891500Y-115886100D01*
%TO.N,/AD0*%
X139517000Y-81462000D02*
X139517000Y-80011900D01*
X103066500Y-112520000D02*
X112751800Y-112520000D01*
X139517000Y-79905900D02*
X139517000Y-80011900D01*
X137767200Y-78156100D02*
X139517000Y-79905900D01*
X125575000Y-78156100D02*
X137767200Y-78156100D01*
X125058000Y-77639100D02*
X125575000Y-78156100D01*
D30*
%TO.N,/VCC*%
X107475400Y-76925600D02*
X107475400Y-78190700D01*
X110090500Y-82039000D02*
X110090500Y-80629400D01*
X110090500Y-80629400D02*
X110090500Y-80454800D01*
X110090500Y-80454800D02*
X110090500Y-80453900D01*
X190485000Y-78491000D02*
X191761100Y-78491000D01*
X191761100Y-78491000D02*
X191935100Y-78491000D01*
X191937200Y-84876900D02*
X191935100Y-84879000D01*
X191937200Y-78493100D02*
X191937200Y-84876900D01*
X191935100Y-78491000D02*
X191937200Y-78493100D01*
X190485000Y-84879000D02*
X191935100Y-84879000D01*
X179960500Y-90295400D02*
X179307900Y-90295400D01*
X180613000Y-95307400D02*
X180613000Y-97929400D01*
X180609300Y-90295400D02*
X179960500Y-90295400D01*
X180609300Y-90295400D02*
X180613000Y-90295400D01*
X136517000Y-81462000D02*
X136517000Y-79886900D01*
X134517000Y-105462000D02*
X134517000Y-107037100D01*
X110090500Y-100457000D02*
X110090500Y-102042100D01*
X142679000Y-113756000D02*
X141378900Y-113756000D01*
X110090500Y-82039000D02*
X110090500Y-83624100D01*
X109375900Y-80091200D02*
X110090500Y-80091200D01*
X107475400Y-78190700D02*
X109375900Y-80091200D01*
X110090500Y-80453900D02*
X110090500Y-80091200D01*
X134660000Y-107037100D02*
X134517000Y-107037100D01*
X141378900Y-113756000D02*
X134660000Y-107037100D01*
X168401500Y-73791500D02*
X169651600Y-73791500D01*
X192261400Y-73749100D02*
X192261400Y-72484000D01*
X179307900Y-89777900D02*
X173481500Y-83951500D01*
X179307900Y-90295400D02*
X179307900Y-89777900D01*
X109276300Y-118941500D02*
X109280400Y-118941500D01*
X109117900Y-118783100D02*
X109276300Y-118941500D01*
X109280400Y-120206600D02*
X109280400Y-118941500D01*
X139311000Y-66088000D02*
X139311000Y-69663100D01*
X139311000Y-70336100D02*
X138854700Y-70336100D01*
X139311000Y-69663100D02*
X139311000Y-70336100D01*
X159483800Y-124208900D02*
X159281300Y-124006400D01*
X159486000Y-124208900D02*
X159483800Y-124208900D01*
X159486000Y-129159000D02*
X159486000Y-124208900D01*
X162424400Y-73791500D02*
X168401500Y-73791500D01*
X159813400Y-71180500D02*
X162424400Y-73791500D01*
X159486000Y-66088000D02*
X159486000Y-69663100D01*
X159813400Y-71180500D02*
X159813400Y-70585500D01*
X159813400Y-69990500D02*
X159486000Y-69663100D01*
X159813400Y-70585500D02*
X159813400Y-69990500D01*
X191935100Y-75340500D02*
X191935100Y-78491000D01*
X192261400Y-75014200D02*
X191935100Y-75340500D01*
X192261400Y-73749100D02*
X192261400Y-75014200D01*
X136447100Y-79817000D02*
X136517000Y-79886900D01*
X136447100Y-79048000D02*
X136447100Y-79817000D01*
X110379900Y-79801800D02*
X110090500Y-80091200D01*
X122874500Y-79801800D02*
X110379900Y-79801800D01*
X123945100Y-78731200D02*
X122874500Y-79801800D01*
X136130300Y-78731200D02*
X123945100Y-78731200D01*
X136447100Y-79048000D02*
X136130300Y-78731200D01*
X139311000Y-129159000D02*
X139311000Y-124208900D01*
X139311000Y-124208900D02*
X139311000Y-124031300D01*
X180613000Y-90947900D02*
X180613000Y-92857400D01*
X179960500Y-90295400D02*
X180613000Y-90947900D01*
X180613000Y-92857400D02*
X180613000Y-95307400D01*
X107830200Y-104302400D02*
X107041600Y-104302400D01*
X110090500Y-102042100D02*
X107830200Y-104302400D01*
X159169600Y-71824300D02*
X159813400Y-71180500D01*
X153981400Y-71824300D02*
X159169600Y-71824300D01*
X153826100Y-71669000D02*
X153981400Y-71824300D01*
X140643900Y-71669000D02*
X153826100Y-71669000D01*
X139311000Y-70336100D02*
X140643900Y-71669000D01*
X106921000Y-86673000D02*
X106921000Y-86673100D01*
X107041600Y-86673000D02*
X106921000Y-86673000D01*
X110090500Y-83624100D02*
X107041600Y-86673000D01*
X190685000Y-70907600D02*
X192261400Y-72484000D01*
X179004400Y-70907600D02*
X190685000Y-70907600D01*
X178304300Y-71607700D02*
X179004400Y-70907600D01*
X171835400Y-71607700D02*
X178304300Y-71607700D01*
X169651600Y-73791500D02*
X171835400Y-71607700D01*
D29*
%TO.N,/{slash}write*%
X136792000Y-129159000D02*
X136792000Y-124333900D01*
X145242100Y-97462000D02*
X145967100Y-97462000D01*
X145242100Y-97462000D02*
X144517000Y-97462000D01*
X144517000Y-97462000D02*
X143066900Y-97462000D01*
X111242600Y-101918100D02*
X110954700Y-102206000D01*
X111361500Y-101918100D02*
X111242600Y-101918100D01*
X111361500Y-100458000D02*
X111361500Y-101918100D01*
X111361500Y-82040000D02*
X111361500Y-83500100D01*
X136792000Y-66088000D02*
X136792000Y-69538100D01*
X136445900Y-69538100D02*
X136792000Y-69538100D01*
X136056200Y-69927800D02*
X136445900Y-69538100D01*
X157277300Y-108772200D02*
X145967100Y-97462000D01*
X157277300Y-109310000D02*
X157277300Y-108772200D01*
X157660600Y-109693300D02*
X157277300Y-109310000D01*
X157660600Y-115810100D02*
X157660600Y-109693300D01*
X154155000Y-119315700D02*
X157660600Y-115810100D01*
X145766700Y-119315700D02*
X154155000Y-119315700D01*
X142660200Y-122422200D02*
X145766700Y-119315700D01*
X138703700Y-122422200D02*
X142660200Y-122422200D01*
X136792000Y-124333900D02*
X138703700Y-122422200D01*
X112043300Y-84181900D02*
X112043300Y-84556600D01*
X111361500Y-83500100D02*
X112043300Y-84181900D01*
X135926000Y-90321100D02*
X135926000Y-90185800D01*
X143066900Y-97462000D02*
X135926000Y-90321100D01*
X111361500Y-82040000D02*
X111361500Y-80579900D01*
X111364600Y-80576800D02*
X111361500Y-80579900D01*
X125296800Y-80576800D02*
X111364600Y-80576800D01*
X134905800Y-90185800D02*
X125296800Y-80576800D01*
X135926000Y-90185800D02*
X134905800Y-90185800D01*
%TO.N,/A17*%
X112592500Y-100455000D02*
X112592500Y-99837500D01*
X140517000Y-105462000D02*
X140517000Y-104011900D01*
X113753600Y-83198100D02*
X112592500Y-82037000D01*
X116973400Y-83198100D02*
X113753600Y-83198100D01*
X117967600Y-99837500D02*
X118120100Y-99685000D01*
X112592500Y-99837500D02*
X117967600Y-99837500D01*
X119378300Y-100943200D02*
X118120100Y-99685000D01*
X121135600Y-100943200D02*
X119378300Y-100943200D01*
X123780600Y-103588200D02*
X121135600Y-100943200D01*
X127935500Y-103588200D02*
X123780600Y-103588200D01*
X130199500Y-101324200D02*
X127935500Y-103588200D01*
X137829300Y-101324200D02*
X130199500Y-101324200D01*
X140517000Y-104011900D02*
X137829300Y-101324200D01*
%TO.N,/A14*%
X114497500Y-102359000D02*
X115227600Y-102359000D01*
X137517000Y-105462000D02*
X137517000Y-104011900D01*
X114497500Y-83941000D02*
X115957600Y-83941000D01*
X115957600Y-83941000D02*
X116237500Y-83941000D01*
X115834000Y-101449200D02*
X115602700Y-101680500D01*
X121005000Y-101449200D02*
X115834000Y-101449200D01*
X123594100Y-104038300D02*
X121005000Y-101449200D01*
X128122100Y-104038300D02*
X123594100Y-104038300D01*
X128613400Y-103547000D02*
X128122100Y-104038300D01*
X137052100Y-103547000D02*
X128613400Y-103547000D01*
X137517000Y-104011900D02*
X137052100Y-103547000D01*
X115227600Y-102055600D02*
X115602700Y-101680500D01*
X115227600Y-102359000D02*
X115227600Y-102055600D01*
X115602700Y-101680500D02*
X115298700Y-101376500D01*
%TO.N,/A13*%
X114496500Y-103590000D02*
X115226600Y-103590000D01*
X136517000Y-105462000D02*
X136517000Y-104011900D01*
X114496500Y-85172000D02*
X115956600Y-85172000D01*
X115956600Y-85172000D02*
X116253300Y-85172000D01*
X116433800Y-102305500D02*
X116302600Y-102174300D01*
X116433800Y-102382800D02*
X116433800Y-102305500D01*
X121302000Y-102382800D02*
X116433800Y-102382800D01*
X123407600Y-104488400D02*
X121302000Y-102382800D01*
X128308600Y-104488400D02*
X123407600Y-104488400D01*
X128785100Y-104011900D02*
X128308600Y-104488400D01*
X136517000Y-104011900D02*
X128785100Y-104011900D01*
X116433800Y-102382800D02*
X115226600Y-103590000D01*
%TO.N,/A8*%
X114493500Y-86484000D02*
X113033400Y-86484000D01*
X113033400Y-104902000D02*
X112738200Y-104902000D01*
X113763500Y-104902000D02*
X113033400Y-104902000D01*
X112850300Y-86484000D02*
X112748900Y-86382600D01*
X113033400Y-86484000D02*
X112850300Y-86484000D01*
X113763500Y-104902000D02*
X114493500Y-104902000D01*
X128891900Y-106912100D02*
X129517000Y-106912100D01*
X128529300Y-106549500D02*
X128891900Y-106912100D01*
X122341700Y-106549500D02*
X128529300Y-106549500D01*
X121881000Y-107010200D02*
X122341700Y-106549500D01*
X118607300Y-107010200D02*
X121881000Y-107010200D01*
X116499100Y-104902000D02*
X118607300Y-107010200D01*
X114493500Y-104902000D02*
X116499100Y-104902000D01*
X129517000Y-105462000D02*
X129517000Y-106912100D01*
%TO.N,/A9*%
X130517000Y-105462000D02*
X130517000Y-106912100D01*
X114496500Y-106171000D02*
X115956600Y-106171000D01*
X114496500Y-87753000D02*
X115956600Y-87753000D01*
X116369800Y-106171000D02*
X115956600Y-106171000D01*
X115956600Y-87753000D02*
X116689800Y-87753000D01*
X116369800Y-106171000D02*
X116369800Y-105896000D01*
X130047800Y-107381300D02*
X130517000Y-106912100D01*
X127894300Y-107381300D02*
X130047800Y-107381300D01*
X127708700Y-107195700D02*
X127894300Y-107381300D01*
X122557300Y-107195700D02*
X127708700Y-107195700D01*
X122292700Y-107460300D02*
X122557300Y-107195700D01*
X117659100Y-107460300D02*
X122292700Y-107460300D01*
X116369800Y-106171000D02*
X117659100Y-107460300D01*
%TO.N,/A11*%
X114495500Y-107403000D02*
X115955600Y-107403000D01*
X114495500Y-88985000D02*
X115955600Y-88985000D01*
X121855500Y-88985000D02*
X115955600Y-88985000D01*
X132517000Y-105462000D02*
X132517000Y-106912100D01*
X130518500Y-108910600D02*
X132517000Y-106912100D01*
X117746600Y-108910600D02*
X130518500Y-108910600D01*
X116861200Y-108025200D02*
X117746600Y-108910600D01*
X116577800Y-108025200D02*
X116861200Y-108025200D01*
X115955600Y-107403000D02*
X116577800Y-108025200D01*
%TO.N,/Output_Enable*%
X126517000Y-92462000D02*
X125066900Y-92462000D01*
X115907500Y-108710000D02*
X116775900Y-109578400D01*
X114496500Y-108710000D02*
X115907500Y-108710000D01*
X120588900Y-90292000D02*
X114496500Y-90292000D01*
X122689800Y-92392900D02*
X120588900Y-90292000D01*
X124997800Y-92392900D02*
X125066900Y-92462000D01*
X122689800Y-92392900D02*
X124997800Y-92392900D01*
%TO.N,/A10*%
X114497500Y-109981000D02*
X113037400Y-109981000D01*
X113037400Y-109592300D02*
X112755800Y-109310700D01*
X113037400Y-109981000D02*
X113037400Y-109592300D01*
X131517000Y-105462000D02*
X131517000Y-106912100D01*
X114497500Y-91563000D02*
X113037400Y-91563000D01*
X112571600Y-92028800D02*
X112571600Y-92065000D01*
X113037400Y-91563000D02*
X112571600Y-92028800D01*
X130243600Y-108185500D02*
X131517000Y-106912100D01*
X118111300Y-108185500D02*
X130243600Y-108185500D01*
%TO.N,/Chip_Enable*%
X116447300Y-111249000D02*
X117922700Y-109773600D01*
X114496500Y-111249000D02*
X116447300Y-111249000D01*
X124482400Y-94462000D02*
X126517000Y-94462000D01*
X124055400Y-94889000D02*
X124482400Y-94462000D01*
X124482400Y-93716700D02*
X124482400Y-94462000D01*
X123883700Y-93118000D02*
X124482400Y-93716700D01*
X116243600Y-93118000D02*
X123883700Y-93118000D01*
X115956600Y-92831000D02*
X116243600Y-93118000D01*
X114496500Y-92831000D02*
X115956600Y-92831000D01*
%TO.N,/AD15*%
X124185000Y-129159000D02*
X124185000Y-124333900D01*
X116200800Y-93858800D02*
X115956600Y-94103000D01*
X123524000Y-93858800D02*
X116200800Y-93858800D01*
X114496500Y-94103000D02*
X115956600Y-94103000D01*
X124136100Y-69538100D02*
X124185000Y-69538100D01*
X123814900Y-69859300D02*
X124136100Y-69538100D01*
X124185000Y-66088000D02*
X124185000Y-69538100D01*
X142859300Y-117809900D02*
X130531000Y-117809900D01*
X143379000Y-117290200D02*
X142859300Y-117809900D01*
X153510500Y-117290200D02*
X143379000Y-117290200D01*
X155834000Y-114966700D02*
X153510500Y-117290200D01*
X155834000Y-110726700D02*
X155834000Y-114966700D01*
X146569300Y-101462000D02*
X155834000Y-110726700D01*
X144517000Y-101462000D02*
X146569300Y-101462000D01*
X128313900Y-120205000D02*
X124185000Y-124333900D01*
X129944200Y-120205000D02*
X128313900Y-120205000D01*
X130531000Y-119618200D02*
X129944200Y-120205000D01*
X130531000Y-117809900D02*
X130531000Y-119618200D01*
X126106200Y-116851200D02*
X124898400Y-115643400D01*
X129572300Y-116851200D02*
X126106200Y-116851200D01*
X130531000Y-117809900D02*
X129572300Y-116851200D01*
%TO.N,/AD14*%
X126712000Y-66088000D02*
X126712000Y-69538100D01*
X112550500Y-96009000D02*
X112550500Y-97469100D01*
X114320000Y-96321400D02*
X117865100Y-96321400D01*
X113172300Y-97469100D02*
X114320000Y-96321400D01*
X112550500Y-97469100D02*
X113172300Y-97469100D01*
X126116500Y-70133600D02*
X126116500Y-71715600D01*
X126712000Y-69538100D02*
X126116500Y-70133600D01*
X122828800Y-83514400D02*
X126796000Y-83514400D01*
X143792000Y-100462000D02*
X143066900Y-100462000D01*
X143792000Y-100462000D02*
X144517000Y-100462000D01*
X126712000Y-122552500D02*
X126712000Y-129159000D01*
X128447300Y-120817200D02*
X126712000Y-122552500D01*
X141422000Y-120817200D02*
X128447300Y-120817200D01*
X144273800Y-117965400D02*
X141422000Y-120817200D01*
X153474600Y-117965400D02*
X144273800Y-117965400D01*
X156310300Y-115129700D02*
X153474600Y-117965400D01*
X156310300Y-110477800D02*
X156310300Y-115129700D01*
X146294500Y-100462000D02*
X156310300Y-110477800D01*
X144517000Y-100462000D02*
X146294500Y-100462000D01*
X127597800Y-83514400D02*
X126796000Y-83514400D01*
X133127100Y-89043700D02*
X127597800Y-83514400D01*
X133127100Y-91089800D02*
X133127100Y-89043700D01*
X142499300Y-100462000D02*
X133127100Y-91089800D01*
X143066900Y-100462000D02*
X142499300Y-100462000D01*
%TO.N,/AD13*%
X129231000Y-129159000D02*
X129231000Y-124333900D01*
X145242100Y-99462000D02*
X145967100Y-99462000D01*
X145242100Y-99462000D02*
X144517000Y-99462000D01*
X129231000Y-121717500D02*
X129231000Y-124333900D01*
X129231000Y-121717500D02*
X128577700Y-121717500D01*
X129231000Y-66088000D02*
X129231000Y-69538100D01*
X111319500Y-96011000D02*
X111319500Y-94550900D01*
X127116700Y-71652400D02*
X127116700Y-71772500D01*
X129231000Y-69538100D02*
X127116700Y-71652400D01*
X126098300Y-72790900D02*
X122456600Y-72790900D01*
X127116700Y-71772500D02*
X126098300Y-72790900D01*
X156760400Y-110255300D02*
X145967100Y-99462000D01*
X156760400Y-115316100D02*
X156760400Y-110255300D01*
X153661000Y-118415500D02*
X156760400Y-115316100D01*
X145393600Y-118415500D02*
X153661000Y-118415500D01*
X142541700Y-121267400D02*
X145393600Y-118415500D01*
X129681100Y-121267400D02*
X142541700Y-121267400D01*
X129231000Y-121717500D02*
X129681100Y-121267400D01*
X111375900Y-94494500D02*
X111375900Y-89633900D01*
X111319500Y-94550900D02*
X111375900Y-94494500D01*
%TO.N,/AD12*%
X110053500Y-96008000D02*
X110053500Y-94547900D01*
X134273000Y-129159000D02*
X134273000Y-124333900D01*
X134273000Y-66088000D02*
X134273000Y-69538100D01*
X134041000Y-69770100D02*
X134273000Y-69538100D01*
X134041000Y-69817600D02*
X134041000Y-69770100D01*
X145967100Y-98636400D02*
X145967100Y-98462000D01*
X157210500Y-109879800D02*
X145967100Y-98636400D01*
X157210500Y-115542400D02*
X157210500Y-109879800D01*
X153887300Y-118865600D02*
X157210500Y-115542400D01*
X145580200Y-118865600D02*
X153887300Y-118865600D01*
X142662500Y-121783300D02*
X145580200Y-118865600D01*
X136823600Y-121783300D02*
X142662500Y-121783300D01*
X134273000Y-124333900D02*
X136823600Y-121783300D01*
X145242100Y-98462000D02*
X145967100Y-98462000D01*
X145242100Y-98462000D02*
X144517000Y-98462000D01*
X141524700Y-98462000D02*
X133852200Y-90789500D01*
X144517000Y-98462000D02*
X141524700Y-98462000D01*
X110472700Y-94128700D02*
X110472700Y-88986700D01*
X110053500Y-94547900D02*
X110472700Y-94128700D01*
X118192400Y-78263000D02*
X118192400Y-78882800D01*
X120483400Y-75972000D02*
X118192400Y-78263000D01*
X126295300Y-75972000D02*
X120483400Y-75972000D01*
X128413500Y-73853800D02*
X126295300Y-75972000D01*
X131833800Y-73853800D02*
X128413500Y-73853800D01*
X132308700Y-73378900D02*
X131833800Y-73853800D01*
%TO.N,/AD11*%
X144364000Y-66088000D02*
X144364000Y-69538100D01*
X143660200Y-69538100D02*
X144364000Y-69538100D01*
X143110100Y-70088200D02*
X143660200Y-69538100D01*
X144517000Y-95462000D02*
X142782100Y-95462000D01*
X122113200Y-115158000D02*
X113504600Y-115158000D01*
X124735800Y-112535400D02*
X122113200Y-115158000D01*
X132769400Y-112535400D02*
X124735800Y-112535400D01*
X133537800Y-113303800D02*
X132769400Y-112535400D01*
X140023400Y-113303800D02*
X133537800Y-113303800D01*
X141672600Y-114953000D02*
X140023400Y-113303800D01*
X143755300Y-114953000D02*
X141672600Y-114953000D01*
X143965400Y-114742900D02*
X143755300Y-114953000D01*
X143965400Y-112877700D02*
X143965400Y-114742900D01*
X145395100Y-111448000D02*
X143965400Y-112877700D01*
X145953400Y-111448000D02*
X145395100Y-111448000D01*
X108842800Y-94550900D02*
X109256000Y-94137700D01*
X108742500Y-94550900D02*
X108842800Y-94550900D01*
X108742500Y-96011000D02*
X108742500Y-94550900D01*
X144364000Y-129159000D02*
X144364000Y-124333900D01*
X144517000Y-95462000D02*
X145967100Y-95462000D01*
X158228800Y-107723700D02*
X145967100Y-95462000D01*
X158228800Y-108988300D02*
X158228800Y-107723700D01*
X158560800Y-109320300D02*
X158228800Y-108988300D01*
X158560800Y-116282800D02*
X158560800Y-109320300D01*
X154402000Y-120441600D02*
X158560800Y-116282800D01*
X148256300Y-120441600D02*
X154402000Y-120441600D01*
X144364000Y-124333900D02*
X148256300Y-120441600D01*
D30*
%TO.N,/GND*%
X172093000Y-129159000D02*
X172093000Y-124208900D01*
X174623000Y-129159000D02*
X174623000Y-124383900D01*
X131750000Y-129159000D02*
X131750000Y-124208900D01*
X119142000Y-129159000D02*
X119142000Y-124208900D01*
X121660000Y-129159000D02*
X121660000Y-124383900D01*
X116690800Y-69663100D02*
X119142000Y-69663100D01*
X110693400Y-75660500D02*
X116690800Y-69663100D01*
X110693400Y-76925600D02*
X110693400Y-75660500D01*
X115139700Y-120206600D02*
X112498400Y-120206600D01*
X119142000Y-124208900D02*
X115139700Y-120206600D01*
X121660000Y-66088000D02*
X119142000Y-66088000D01*
X119142000Y-66088000D02*
X119142000Y-69663100D01*
X119891700Y-124208900D02*
X119891700Y-124005300D01*
X119891700Y-124208900D02*
X119142000Y-124208900D01*
X131299400Y-124208900D02*
X131111200Y-124020700D01*
X131750000Y-124208900D02*
X131299400Y-124208900D01*
X196198000Y-77182000D02*
X195479400Y-77182000D01*
X195479400Y-77182000D02*
X194747900Y-77182000D01*
X179668000Y-129159000D02*
X179668000Y-124208900D01*
X107471500Y-114427000D02*
X107471500Y-116012100D01*
X193111500Y-87919500D02*
X193111500Y-86674400D01*
X174623000Y-66088000D02*
X172093000Y-66088000D01*
X135517000Y-81462000D02*
X135517000Y-79886900D01*
X125729500Y-87462000D02*
X124941900Y-87462000D01*
X125729500Y-87462000D02*
X126517000Y-87462000D01*
X126517000Y-87462000D02*
X128092100Y-87462000D01*
X154151000Y-113796000D02*
X152850900Y-113796000D01*
X145841700Y-106786800D02*
X152850900Y-113796000D01*
X142267200Y-106786800D02*
X145841700Y-106786800D01*
X135517000Y-106538900D02*
X135517000Y-105462000D01*
X136015300Y-107037200D02*
X135517000Y-106538900D01*
X142016800Y-107037200D02*
X136015300Y-107037200D01*
X142267200Y-106786800D02*
X142016800Y-107037200D01*
X142267200Y-101637100D02*
X142267200Y-106786800D01*
X128092100Y-87462000D02*
X142267200Y-101637100D01*
X174623000Y-66088000D02*
X174623000Y-69498000D01*
X124224200Y-86744300D02*
X124941900Y-87462000D01*
X107675100Y-116012100D02*
X107945100Y-116282100D01*
X107471500Y-116012100D02*
X107675100Y-116012100D01*
X121485000Y-124208900D02*
X119891700Y-124208900D01*
X121660000Y-124383900D02*
X121485000Y-124208900D01*
X126726100Y-119317800D02*
X129805900Y-119317800D01*
X121660000Y-124383900D02*
X126726100Y-119317800D01*
X192701000Y-86263900D02*
X193111500Y-86674400D01*
X192701000Y-78529300D02*
X192701000Y-86263900D01*
X194048300Y-77182000D02*
X192701000Y-78529300D01*
X194747900Y-77182000D02*
X194048300Y-77182000D01*
X135061400Y-79431300D02*
X135517000Y-79886900D01*
X124557700Y-79431300D02*
X135061400Y-79431300D01*
X124224200Y-79764800D02*
X124557700Y-79431300D01*
X107471500Y-96009000D02*
X107471500Y-94423900D01*
X121082700Y-71603800D02*
X119142000Y-69663100D01*
X121137400Y-71549100D02*
X123166300Y-71549100D01*
X121082700Y-71603800D02*
X121137400Y-71549100D01*
X131750000Y-66088000D02*
X131750000Y-69663100D01*
X129083900Y-71007600D02*
X131355200Y-71007600D01*
X126412300Y-73679200D02*
X129083900Y-71007600D01*
X122091300Y-73679200D02*
X126412300Y-73679200D01*
X121082700Y-72670600D02*
X122091300Y-73679200D01*
X121082700Y-71603800D02*
X121082700Y-72670600D01*
X131355200Y-70231000D02*
X131725700Y-69860500D01*
X131355200Y-71007600D02*
X131355200Y-70231000D01*
X131725700Y-69687400D02*
X131750000Y-69663100D01*
X131725700Y-69860500D02*
X131725700Y-69687400D01*
X179861000Y-124015900D02*
X179668000Y-124208900D01*
X179875100Y-124015900D02*
X179861000Y-124015900D01*
X175827200Y-123179700D02*
X174623000Y-124383900D01*
X178638800Y-123179700D02*
X175827200Y-123179700D01*
X179668000Y-124208900D02*
X178638800Y-123179700D01*
X173823400Y-124208900D02*
X173823400Y-123970400D01*
X172093000Y-124208900D02*
X173823400Y-124208900D01*
X174448000Y-124208900D02*
X174623000Y-124383900D01*
X173823400Y-124208900D02*
X174448000Y-124208900D01*
X107771100Y-94124300D02*
X107771100Y-92092500D01*
X107471500Y-94423900D02*
X107771100Y-94124300D01*
X135043600Y-74696000D02*
X131355200Y-71007600D01*
X140421900Y-74696000D02*
X135043600Y-74696000D01*
X141381900Y-75656000D02*
X140421900Y-74696000D01*
X142682000Y-75656000D02*
X141381900Y-75656000D01*
X144020300Y-76994300D02*
X142682000Y-75656000D01*
X156898800Y-76994300D02*
X144020300Y-76994300D01*
X157486200Y-77581700D02*
X156898800Y-76994300D01*
X168954700Y-77581700D02*
X157486200Y-77581700D01*
X169629700Y-76906700D02*
X168954700Y-77581700D01*
X171454100Y-76906700D02*
X169629700Y-76906700D01*
X171899900Y-76460900D02*
X171454100Y-76906700D01*
X195479400Y-77182000D02*
X195479400Y-73749100D01*
X192658500Y-69663100D02*
X179668000Y-69663100D01*
X195479400Y-72484000D02*
X192658500Y-69663100D01*
X195479400Y-73749100D02*
X195479400Y-72484000D01*
X179668000Y-66088000D02*
X179668000Y-69663100D01*
X178908500Y-69663100D02*
X179668000Y-69663100D01*
X177839000Y-70732600D02*
X178908500Y-69663100D01*
X175661500Y-70732600D02*
X177839000Y-70732600D01*
X174623000Y-69694100D02*
X175661500Y-70732600D01*
X174623000Y-69498000D02*
X174623000Y-69694100D01*
X174623000Y-69694100D02*
X174490000Y-69827100D01*
D29*
%TO.N,/AD10*%
X106161500Y-96007000D02*
X106161500Y-94546900D01*
X146885000Y-129159000D02*
X146885000Y-124333900D01*
X144517000Y-94462000D02*
X148094500Y-94462000D01*
X147911600Y-70564700D02*
X146885000Y-69538100D01*
X147911600Y-70818900D02*
X147911600Y-70564700D01*
X146885000Y-66088000D02*
X146885000Y-69538100D01*
X158734500Y-105102000D02*
X148094500Y-94462000D01*
X158734500Y-108857400D02*
X158734500Y-105102000D01*
X159010900Y-109133800D02*
X158734500Y-108857400D01*
X159010900Y-116566900D02*
X159010900Y-109133800D01*
X154631500Y-120946300D02*
X159010900Y-116566900D01*
X150272600Y-120946300D02*
X154631500Y-120946300D01*
X146885000Y-124333900D02*
X150272600Y-120946300D01*
X107046000Y-93662400D02*
X106161500Y-94546900D01*
X107046000Y-91792200D02*
X107046000Y-93662400D01*
X107499000Y-91339200D02*
X107046000Y-91792200D01*
X109706900Y-91339200D02*
X107499000Y-91339200D01*
X145653600Y-79383300D02*
X148565800Y-82295500D01*
X142264100Y-79383300D02*
X145653600Y-79383300D01*
X138658300Y-75777500D02*
X142264100Y-79383300D01*
X129861400Y-75777500D02*
X138658300Y-75777500D01*
X129216800Y-76422100D02*
X129861400Y-75777500D01*
X121101400Y-76422100D02*
X129216800Y-76422100D01*
X120120500Y-77403000D02*
X121101400Y-76422100D01*
%TO.N,/AD9*%
X145242100Y-93462000D02*
X145967100Y-93462000D01*
X154449000Y-129159000D02*
X154449000Y-124333900D01*
X154449000Y-70858700D02*
X154449000Y-66088000D01*
X154333500Y-70974200D02*
X154449000Y-70858700D01*
X151808800Y-96809500D02*
X155104300Y-93514000D01*
X148461200Y-93462000D02*
X145967100Y-93462000D01*
X151808800Y-96809500D02*
X148461200Y-93462000D01*
X159241400Y-104242200D02*
X151808800Y-96809500D01*
X159241400Y-108727700D02*
X159241400Y-104242200D01*
X159461000Y-108947300D02*
X159241400Y-108727700D01*
X159461000Y-116753400D02*
X159461000Y-108947300D01*
X159241400Y-116973000D02*
X159461000Y-116753400D01*
X159241400Y-119541500D02*
X159241400Y-116973000D01*
X154449000Y-124333900D02*
X159241400Y-119541500D01*
X145242100Y-93462000D02*
X144517000Y-93462000D01*
X106296800Y-93142600D02*
X104891500Y-94547900D01*
X106296800Y-91872700D02*
X106296800Y-93142600D01*
X108392300Y-89777200D02*
X106296800Y-91872700D01*
X109111300Y-89777200D02*
X108392300Y-89777200D01*
X104891500Y-96008000D02*
X104891500Y-94547900D01*
X148841700Y-84233600D02*
X154879300Y-84233600D01*
X147068100Y-82460000D02*
X148841700Y-84233600D01*
X144704200Y-82460000D02*
X147068100Y-82460000D01*
X138471800Y-76227600D02*
X144704200Y-82460000D01*
X130047900Y-76227600D02*
X138471800Y-76227600D01*
X129403300Y-76872200D02*
X130047900Y-76227600D01*
X124783000Y-76872200D02*
X129403300Y-76872200D01*
X123076900Y-78578300D02*
X124783000Y-76872200D01*
X119291800Y-78578300D02*
X123076900Y-78578300D01*
%TO.N,/AD8*%
X156968000Y-129159000D02*
X156968000Y-124333900D01*
X103066500Y-94102000D02*
X104526600Y-94102000D01*
X144517000Y-92462000D02*
X145967100Y-92462000D01*
X156968000Y-66088000D02*
X156968000Y-69538100D01*
X144517000Y-92462000D02*
X143066900Y-92462000D01*
X142577400Y-91972500D02*
X139486100Y-91972500D01*
X143066900Y-92462000D02*
X142577400Y-91972500D01*
X156064300Y-92462000D02*
X158114300Y-94512000D01*
X145967100Y-92462000D02*
X156064300Y-92462000D01*
X157991700Y-69538100D02*
X156968000Y-69538100D01*
X158145000Y-69691400D02*
X157991700Y-69538100D01*
X122220500Y-113529900D02*
X113507500Y-113529900D01*
X124206900Y-111543500D02*
X122220500Y-113529900D01*
X137891100Y-111543500D02*
X124206900Y-111543500D01*
X159911100Y-96308800D02*
X158114300Y-94512000D01*
X159911100Y-121390800D02*
X159911100Y-96308800D01*
X156968000Y-124333900D02*
X159911100Y-121390800D01*
X105621600Y-93007000D02*
X104526600Y-94102000D01*
X105621600Y-91843700D02*
X105621600Y-93007000D01*
X109629600Y-87835700D02*
X105621600Y-91843700D01*
X112646100Y-87835700D02*
X109629600Y-87835700D01*
%TO.N,/A0*%
X126517000Y-95462000D02*
X125066900Y-95462000D01*
X103796600Y-92834000D02*
X104526600Y-92834000D01*
X103796600Y-92834000D02*
X103066500Y-92834000D01*
X103066500Y-111252000D02*
X104526600Y-111252000D01*
X108838100Y-110934000D02*
X108838100Y-110933900D01*
X104844600Y-110934000D02*
X108838100Y-110934000D01*
X104526600Y-111252000D02*
X104844600Y-110934000D01*
X109768500Y-87057700D02*
X111372900Y-87057700D01*
X104526600Y-92299600D02*
X109768500Y-87057700D01*
X104526600Y-92834000D02*
X104526600Y-92299600D01*
X124914800Y-95614100D02*
X125066900Y-95462000D01*
X122777900Y-95614100D02*
X124914800Y-95614100D01*
X122625800Y-95462000D02*
X122777900Y-95614100D01*
X114586900Y-95462000D02*
X122625800Y-95462000D01*
%TO.N,/A1*%
X126517000Y-96462000D02*
X125066900Y-96462000D01*
X103684500Y-109981000D02*
X104526600Y-109981000D01*
X103684500Y-109981000D02*
X103066500Y-109981000D01*
X101118400Y-92051000D02*
X101606400Y-91563000D01*
X101118400Y-98539200D02*
X101118400Y-92051000D01*
X101005500Y-98652100D02*
X101118400Y-98539200D01*
X103066500Y-91563000D02*
X101606400Y-91563000D01*
X104905600Y-109806300D02*
X110451700Y-109806300D01*
X104730900Y-109981000D02*
X104905600Y-109806300D01*
X104526600Y-109981000D02*
X104730900Y-109981000D01*
X104905600Y-109806300D02*
X104905600Y-108628600D01*
X124809500Y-96462000D02*
X124750500Y-96521000D01*
X125066900Y-96462000D02*
X124809500Y-96462000D01*
%TO.N,/A2*%
X126517000Y-97462000D02*
X125066900Y-97462000D01*
X124852400Y-97247500D02*
X114754600Y-97247500D01*
X125066900Y-97462000D02*
X124852400Y-97247500D01*
X103067500Y-108713000D02*
X101607400Y-108713000D01*
X103067500Y-90295000D02*
X101607400Y-90295000D01*
X100280400Y-107386000D02*
X101607400Y-108713000D01*
X100280400Y-91622000D02*
X100280400Y-107386000D01*
X101607400Y-90295000D02*
X100280400Y-91622000D01*
X110355600Y-85299600D02*
X112714800Y-85299600D01*
X105360200Y-90295000D02*
X110355600Y-85299600D01*
X103067500Y-90295000D02*
X105360200Y-90295000D01*
%TO.N,/A3*%
X103064500Y-107402000D02*
X104524600Y-107402000D01*
X104524600Y-107402000D02*
X105832800Y-107402000D01*
X103064500Y-88984000D02*
X101604400Y-88984000D01*
X101374800Y-88754400D02*
X101604400Y-88984000D01*
X101304800Y-88754400D02*
X101374800Y-88754400D01*
X112748400Y-107434000D02*
X112748400Y-106840400D01*
X111357200Y-108825200D02*
X112748400Y-107434000D01*
X107256000Y-108825200D02*
X111357200Y-108825200D01*
X105832800Y-107402000D02*
X107256000Y-108825200D01*
X121131500Y-98423000D02*
X121092500Y-98462000D01*
X125027900Y-98423000D02*
X121131500Y-98423000D01*
X125066900Y-98462000D02*
X125027900Y-98423000D01*
X126517000Y-98462000D02*
X125066900Y-98462000D01*
%TO.N,/A4*%
X103066500Y-106170000D02*
X101606400Y-106170000D01*
X126517000Y-99462000D02*
X125066900Y-99462000D01*
X103066500Y-87752000D02*
X101606400Y-87752000D01*
X101566000Y-87711600D02*
X101311900Y-87711600D01*
X101606400Y-87752000D02*
X101566000Y-87711600D01*
X102615400Y-97498300D02*
X102615400Y-96261900D01*
X102615400Y-98067700D02*
X102615400Y-97498300D01*
X101133500Y-99549600D02*
X102615400Y-98067700D01*
X101133500Y-105697100D02*
X101133500Y-99549600D01*
X101606400Y-106170000D02*
X101133500Y-105697100D01*
X111943000Y-97498300D02*
X102615400Y-97498300D01*
X112420300Y-97975600D02*
X111943000Y-97498300D01*
X119043700Y-97975600D02*
X112420300Y-97975600D01*
X120285300Y-99217200D02*
X119043700Y-97975600D01*
X121932700Y-99217200D02*
X120285300Y-99217200D01*
X122126300Y-99023600D02*
X121932700Y-99217200D01*
X124628500Y-99023600D02*
X122126300Y-99023600D01*
X125066900Y-99462000D02*
X124628500Y-99023600D01*
%TO.N,/A5*%
X104529100Y-104899000D02*
X104811100Y-105181000D01*
X103067500Y-104899000D02*
X104529100Y-104899000D01*
X126517000Y-100462000D02*
X125066900Y-100462000D01*
X103067500Y-86481000D02*
X104527600Y-86481000D01*
X105009400Y-86962800D02*
X104527600Y-86481000D01*
X105009400Y-88405600D02*
X105009400Y-86962800D01*
X111929300Y-107616500D02*
X111929300Y-106222300D01*
X111170700Y-108375100D02*
X111929300Y-107616500D01*
X108005200Y-108375100D02*
X111170700Y-108375100D01*
X104811100Y-105181000D02*
X108005200Y-108375100D01*
X123124300Y-100462000D02*
X122418800Y-99756500D01*
X125066900Y-100462000D02*
X123124300Y-100462000D01*
%TO.N,/A6*%
X103065500Y-103592000D02*
X101605400Y-103592000D01*
X103065500Y-85174000D02*
X101605400Y-85174000D01*
X101226400Y-85553000D02*
X101226400Y-85717300D01*
X101605400Y-85174000D02*
X101226400Y-85553000D01*
X102533100Y-100885800D02*
X102749400Y-100885800D01*
X101605400Y-101813500D02*
X102533100Y-100885800D01*
X101605400Y-103592000D02*
X101605400Y-101813500D01*
X126517000Y-101462000D02*
X125066900Y-101462000D01*
X123098900Y-101462000D02*
X125066900Y-101462000D01*
X121679900Y-100043000D02*
X123098900Y-101462000D01*
X120387900Y-100043000D02*
X121679900Y-100043000D01*
X118770700Y-98425800D02*
X120387900Y-100043000D01*
X111875000Y-98425800D02*
X118770700Y-98425800D01*
X111425100Y-97975900D02*
X111875000Y-98425800D01*
X105040500Y-97975900D02*
X111425100Y-97975900D01*
X102749400Y-100267000D02*
X105040500Y-97975900D01*
X102749400Y-100885800D02*
X102749400Y-100267000D01*
%TO.N,/A7*%
X103068500Y-83944000D02*
X101327600Y-83944000D01*
X103068500Y-102362000D02*
X103454900Y-101975600D01*
X103703000Y-101727500D02*
X103703000Y-100401900D01*
X103454900Y-101975600D02*
X103703000Y-101727500D01*
X108640500Y-107650000D02*
X110870300Y-107650000D01*
X104929000Y-103938500D02*
X108640500Y-107650000D01*
X104929000Y-103449700D02*
X104929000Y-103938500D01*
X103454900Y-101975600D02*
X104929000Y-103449700D01*
X124321200Y-102462000D02*
X124099300Y-102240100D01*
X126517000Y-102462000D02*
X124321200Y-102462000D01*
%TO.N,/A12*%
X104931500Y-100457000D02*
X104931500Y-101917100D01*
X105111100Y-101917100D02*
X105408700Y-102214700D01*
X104931500Y-101917100D02*
X105111100Y-101917100D01*
X133517000Y-105462000D02*
X133517000Y-106912100D01*
X104970900Y-80578900D02*
X105250100Y-80299700D01*
X104931500Y-80578900D02*
X104970900Y-80578900D01*
X104931500Y-82039000D02*
X104931500Y-80578900D01*
X107306600Y-105679500D02*
X110420200Y-105679500D01*
X105408700Y-103781600D02*
X107306600Y-105679500D01*
X105408700Y-102214700D02*
X105408700Y-103781600D01*
X120103400Y-110300900D02*
X120103400Y-110301000D01*
X130128200Y-110300900D02*
X120103400Y-110300900D01*
X133517000Y-106912100D02*
X130128200Y-110300900D01*
%TO.N,/A15*%
X106201500Y-100457000D02*
X106201500Y-99108900D01*
X105757400Y-83499100D02*
X105456100Y-83800400D01*
X106201500Y-83499100D02*
X105757400Y-83499100D01*
X106201500Y-99050600D02*
X105852000Y-98701100D01*
X106201500Y-99108900D02*
X106201500Y-99050600D01*
X106201500Y-82769000D02*
X106201500Y-83499100D01*
X106201500Y-82769000D02*
X106201500Y-82039000D01*
X138517000Y-105462000D02*
X138517000Y-104011900D01*
X106201500Y-80049100D02*
X106201500Y-82039000D01*
X105807600Y-79655200D02*
X106201500Y-80049100D01*
X105807600Y-75823400D02*
X105807600Y-79655200D01*
X106295700Y-75335300D02*
X105807600Y-75823400D01*
X108659900Y-75335300D02*
X106295700Y-75335300D01*
X109221000Y-75896400D02*
X108659900Y-75335300D01*
X109221000Y-77577900D02*
X109221000Y-75896400D01*
X109708900Y-78065800D02*
X109221000Y-77577900D01*
X112540300Y-78065800D02*
X109708900Y-78065800D01*
X116313600Y-74292500D02*
X112540300Y-78065800D01*
X126612500Y-74292500D02*
X116313600Y-74292500D01*
X129032500Y-71872500D02*
X126612500Y-74292500D01*
X129730300Y-71872500D02*
X129032500Y-71872500D01*
X137318200Y-102813100D02*
X133005600Y-102813100D01*
X138517000Y-104011900D02*
X137318200Y-102813100D01*
%TO.N,/A16*%
X107511500Y-101084200D02*
X107511500Y-101916100D01*
X107511500Y-101084200D02*
X107511500Y-100456000D01*
X107511500Y-82768000D02*
X107511500Y-83498100D01*
X107511500Y-82768000D02*
X107511500Y-82038000D01*
X137554400Y-102049300D02*
X133667400Y-102049300D01*
X139517000Y-104011900D02*
X137554400Y-102049300D01*
X139517000Y-105462000D02*
X139517000Y-104011900D01*
X106388100Y-103039500D02*
X106328900Y-103039500D01*
X107511500Y-101916100D02*
X106388100Y-103039500D01*
X106054200Y-88575300D02*
X105114800Y-89514700D01*
X106054200Y-84955400D02*
X106054200Y-88575300D01*
X107511500Y-83498100D02*
X106054200Y-84955400D01*
X107511500Y-80497700D02*
X107511500Y-82038000D01*
X106271700Y-79257900D02*
X107511500Y-80497700D01*
X106271700Y-75995900D02*
X106271700Y-79257900D01*
X106482200Y-75785400D02*
X106271700Y-75995900D01*
X108473400Y-75785400D02*
X106482200Y-75785400D01*
X108650600Y-75962600D02*
X108473400Y-75785400D01*
X108650600Y-77696100D02*
X108650600Y-75962600D01*
X109485800Y-78531300D02*
X108650600Y-77696100D01*
X117287600Y-78531300D02*
X109485800Y-78531300D01*
X121076300Y-74742600D02*
X117287600Y-78531300D01*
X126799000Y-74742600D02*
X121076300Y-74742600D01*
X128748200Y-72793400D02*
X126799000Y-74742600D01*
X130692300Y-72793400D02*
X128748200Y-72793400D01*
%TO.N,/A18*%
X108780500Y-82037000D02*
X108780500Y-83497100D01*
X108780500Y-100455000D02*
X108780500Y-98994900D01*
X141517000Y-105462000D02*
X141517000Y-104011900D01*
X109053600Y-98721800D02*
X109870700Y-98721800D01*
X108780500Y-98994900D02*
X109053600Y-98721800D01*
X110025000Y-98876100D02*
X109870700Y-98721800D01*
X118584500Y-98876100D02*
X110025000Y-98876100D01*
X120201500Y-100493100D02*
X118584500Y-98876100D01*
X121322100Y-100493100D02*
X120201500Y-100493100D01*
X123967100Y-103138100D02*
X121322100Y-100493100D01*
X127749000Y-103138100D02*
X123967100Y-103138100D01*
X130013000Y-100874100D02*
X127749000Y-103138100D01*
X138379200Y-100874100D02*
X130013000Y-100874100D01*
X141517000Y-104011900D02*
X138379200Y-100874100D01*
X108504900Y-83772700D02*
X108411100Y-83772700D01*
X108780500Y-83497100D02*
X108504900Y-83772700D01*
%TD*%
M02*
