M48
; DRILL file {KiCad (6.0.2)} date Sun Oct 23 13:47:47 2022
; FORMAT={-:-/ absolute / metric / decimal}
; #@! TF.CreationDate,2022-10-23T13:47:47-05:00
; #@! TF.GenerationSoftware,Kicad,Pcbnew,(6.0.2)
; #@! TF.FileFunction,Plated,1,2,PTH
FMAT,2
METRIC
; #@! TA.AperFunction,Plated,PTH,ViaDrill
T1C0.400
; #@! TA.AperFunction,Plated,PTH,ComponentDrill
T2C0.800
; #@! TA.AperFunction,Plated,PTH,ComponentDrill
T3C1.000
; #@! TA.AperFunction,Plated,PTH,ComponentDrill
T4C1.100
; #@! TA.AperFunction,Plated,PTH,ComponentDrill
T5C4.450
%
G90
G05
T1
X101.005Y-98.652
X101.226Y-85.717
X101.305Y-88.754
X101.312Y-87.712
X101.328Y-83.944
X102.615Y-96.262
X102.749Y-100.886
X103.703Y-100.402
X104.811Y-105.181
X104.906Y-108.629
X105.009Y-88.406
X105.115Y-89.515
X105.25Y-80.3
X105.409Y-102.215
X105.456Y-83.8
X105.833Y-107.402
X105.852Y-98.701
X106.329Y-103.039
X106.921Y-86.673
X107.042Y-104.302
X107.771Y-92.093
X107.945Y-116.282
X108.411Y-83.773
X108.838Y-110.934
X109.111Y-89.777
X109.118Y-118.783
X109.256Y-94.138
X109.707Y-91.339
X109.871Y-98.722
X110.42Y-105.679
X110.452Y-109.806
X110.473Y-88.987
X110.87Y-107.65
X110.955Y-102.206
X111.373Y-87.058
X111.376Y-89.634
X111.929Y-106.222
X112.043Y-84.557
X112.572Y-92.065
X112.646Y-87.836
X112.715Y-85.3
X112.738Y-104.902
X112.748Y-106.84
X112.749Y-86.383
X112.752Y-112.52
X112.756Y-109.311
X113.505Y-115.158
X113.507Y-113.53
X114.587Y-95.462
X114.755Y-97.248
X115.299Y-101.376
X116.237Y-83.941
X116.253Y-85.172
X116.303Y-102.174
X116.37Y-105.896
X116.69Y-87.753
X116.776Y-109.578
X116.861Y-108.025
X116.973Y-83.198
X117.865Y-96.321
X117.923Y-109.774
X118.111Y-108.185
X118.12Y-99.685
X118.192Y-78.883
X119.292Y-78.578
X119.892Y-124.005
X120.103Y-110.301
X120.12Y-77.403
X121.093Y-98.462
X121.855Y-88.985
X122.419Y-99.756
X122.457Y-72.791
X122.69Y-92.393
X122.829Y-83.514
X123.166Y-71.549
X123.524Y-93.859
X123.815Y-69.859
X124.055Y-94.889
X124.099Y-102.24
X124.224Y-79.765
X124.224Y-86.744
X124.542Y-117.938
X124.75Y-96.521
X124.898Y-115.643
X125.058Y-77.639
X126.116Y-71.716
X126.796Y-83.514
X127.117Y-71.772
X128.326Y-85.268
X128.359Y-75.524
X128.578Y-121.718
X128.914Y-117.576
X129.73Y-71.873
X129.806Y-119.318
X130.086Y-77.215
X130.684Y-87.646
X130.692Y-72.793
X131.087Y-77.431
X131.111Y-124.021
X131.297Y-116.509
X131.726Y-69.861
X131.818Y-83.267
X132.309Y-73.379
X133.006Y-102.813
X133.31Y-71.76
X133.642Y-114.066
X133.667Y-102.049
X133.852Y-90.789
X134.041Y-69.818
X134.841Y-85.601
X135.206Y-112.282
X135.926Y-90.186
X136.056Y-69.928
X136.447Y-79.048
X137.119Y-110.728
X137.197Y-73.191
X137.265Y-84.548
X137.826Y-89.558
X137.891Y-111.543
X138.256Y-79.73
X138.272Y-73.846
X138.576Y-86.678
X138.855Y-70.336
X139.311Y-124.031
X139.368Y-90.462
X139.486Y-91.972
X140.144Y-100.856
X140.62Y-69.609
X141.036Y-94.146
X141.749Y-85.151
X142.559Y-117.085
X142.779Y-87.502
X142.782Y-95.462
X143.11Y-70.088
X145.921Y-81.733
X145.953Y-111.448
X146.287Y-87.8
X147.394Y-116.375
X147.423Y-88.462
X147.912Y-70.819
X148.094Y-94.462
X148.566Y-82.295
X150.419Y-86.448
X150.731Y-123.471
X150.89Y-70.734
X152.278Y-123.042
X152.334Y-70.355
X153.116Y-85.418
X154.333Y-70.974
X154.879Y-84.234
X155.104Y-93.514
X155.467Y-90.461
X157.113Y-90.927
X158.114Y-94.512
X158.145Y-69.691
X159.281Y-124.006
X159.813Y-70.585
X162.364Y-69.815
X162.874Y-124.034
X164.536Y-70.565
X165.491Y-123.987
X167.139Y-89.083
X168.156Y-70.274
X169.35Y-123.09
X170.343Y-69.833
X171.9Y-76.461
X173.823Y-123.97
X174.49Y-69.827
X175.286Y-81.037
X175.515Y-74.408
X176.416Y-69.832
X176.506Y-124.036
X179.875Y-124.016
X186.953Y-78.218
X186.958Y-74.409
X187.18Y-72.868
X189.098Y-89.94
X193.551Y-78.881
X193.984Y-81.435
T2
X168.401Y-73.791
X168.401Y-76.331
X168.401Y-78.871
X168.401Y-81.411
X168.401Y-83.951
X173.481Y-73.791
X173.481Y-76.331
X173.481Y-78.871
X173.481Y-81.411
X173.481Y-83.951
T3
X193.071Y-94.269
X193.111Y-87.919
X197.558Y-94.272
X197.596Y-87.92
T4
X129.979Y-113.754
X142.679Y-113.756
X142.682Y-75.656
X145.259Y-75.656
X145.342Y-113.756
X147.76Y-75.656
X147.842Y-113.756
X150.339Y-75.656
X150.379Y-113.756
X154.15Y-111.253
X154.151Y-113.796
T5
X104.697Y-120.032
X108.548Y-66.22
X190.979Y-66.259
X194.154Y-120.077
T0
M30
